<?xml version="1.0" encoding="utf-8"?>
<!-- Generator: Adobe Illustrator 16.0.3, SVG Export Plug-In . SVG Version: 6.00 Build 0)  -->
<!DOCTYPE svg PUBLIC "-//W3C//DTD SVG 1.1//EN" "http://www.w3.org/Graphics/SVG/1.1/DTD/svg11.dtd">
<svg version="1.1" xmlns="http://www.w3.org/2000/svg" xmlns:xlink="http://www.w3.org/1999/xlink" x="0px" y="0px" width="288px"
	 height="288px" viewBox="0 0 288 288" enable-background="new 0 0 288 288" xml:space="preserve">
<g id="Layer_1" display="none">
	<circle display="inline" fill="#FFFFFF" stroke="#231F20" stroke-miterlimit="10" cx="144" cy="144" r="75.803"/>
	<circle fill="#FFFFFF" stroke="#231F20" stroke-miterlimit="10" cx="219.803" cy="144" r="75.803"/>
	<line fill="none" stroke="#231F20" stroke-miterlimit="10" x1="181.902" y1="78.34" x2="181.902" y2="209.659"/>
	<line fill="none" stroke="#231F20" stroke-miterlimit="10" x1="106.099" y1="78.34" x2="106.099" y2="209.659"/>
	<line display="inline" fill="none" stroke="#231F20" stroke-miterlimit="10" x1="209.66" y1="181.901" x2="78.342" y2="181.901"/>
	<line display="inline" fill="none" stroke="#231F20" stroke-miterlimit="10" x1="209.66" y1="106.098" x2="78.342" y2="106.098"/>
	<circle display="inline" fill="#FFFFFF" stroke="#231F20" stroke-miterlimit="10" cx="181.902" cy="106.098" r="27.758"/>
	<circle display="inline" fill="#FFFFFF" stroke="#231F20" stroke-miterlimit="10" cx="106.099" cy="106.098" r="27.757"/>
	<circle display="inline" fill="#FFFFFF" stroke="#231F20" stroke-miterlimit="10" cx="181.902" cy="102.962" r="27.758"/>
	<circle display="inline" fill="#FFFFFF" stroke="#231F20" stroke-miterlimit="10" cx="106.099" cy="102.962" r="27.757"/>
</g>
<g id="Octodesu" display="none">
	<g>
		<circle display="inline" fill="#FFFFFF" stroke="#231F20" stroke-miterlimit="10" cx="219.803" cy="144" r="75.803"/>
		<line display="inline" fill="none" stroke="#231F20" stroke-miterlimit="10" x1="181.902" y1="78.34" x2="181.902" y2="209.659"/>
		<line display="inline" fill="none" stroke="#231F20" stroke-miterlimit="10" x1="106.099" y1="78.34" x2="106.099" y2="209.659"/>
	</g>
	<g display="inline">
		<path fill="#2E3192" d="M84.72,102.6C98.173,83.399,120.355,71.7,144,71.7s45.827,11.699,59.28,30.9H84.72z"/>
		<path fill="#231F20" d="M144,75.2c20.143,0,39.169,8.921,52.12,23.9H91.879C104.831,84.121,123.858,75.2,144,75.2 M144,68.2
			c-28.05,0-52.55,15.24-65.66,37.9h131.32C196.55,83.44,172.05,68.2,144,68.2L144,68.2z"/>
	</g>
	<g display="inline">
		<path fill="#3C2415" d="M78.629,181.4C72.133,170.068,68.7,157.142,68.7,144c0-13.142,3.433-26.068,9.929-37.4h130.742
			c6.496,11.331,9.929,24.257,9.929,37.4c0,13.143-3.433,26.069-9.929,37.4H78.629z"/>
		<path fill="#231F20" d="M209.081,107.1c6.36,11.195,9.719,23.94,9.719,36.9c0,12.959-3.358,25.705-9.719,36.9H78.919
			C72.559,169.704,69.2,156.958,69.2,144c0-12.958,3.358-25.704,9.719-36.9H209.081 M209.66,106.1H78.34
			C71.89,117.25,68.2,130.19,68.2,144c0,13.81,3.69,26.75,10.14,37.9h131.32c6.45-11.15,10.14-24.091,10.14-37.9
			C219.8,130.19,216.11,117.25,209.66,106.1L209.66,106.1z"/>
	</g>
	<g display="inline">
		<path fill="#2E3192" d="M144,216.3c-23.644,0-45.827-11.698-59.28-30.899h118.559C189.827,204.602,167.645,216.3,144,216.3z"/>
		<path fill="#231F20" d="M196.12,188.9C183.169,203.879,164.142,212.8,144,212.8c-20.142,0-39.168-8.921-52.12-23.899H196.12
			 M209.66,181.9H78.34C91.45,204.56,115.95,219.8,144,219.8S196.55,204.56,209.66,181.9L209.66,181.9z"/>
	</g>
	<g display="inline">
		<circle fill="#EC008C" stroke="#F7941E" stroke-miterlimit="10" cx="181.902" cy="106.098" r="27.758"/>
		<circle fill="#EC008C" stroke="#F7941E" stroke-miterlimit="10" cx="106.099" cy="106.098" r="27.757"/>
	</g>
	<g display="inline">
		<g>
			<path fill="#FFFFFF" d="M181.902,121.72c-10.343,0-18.758-8.415-18.758-18.758s8.415-18.758,18.758-18.758
				s18.758,8.415,18.758,18.758S192.245,121.72,181.902,121.72z"/>
			<path fill="#231F20" d="M181.902,93.204c5.381,0,9.758,4.377,9.758,9.758s-4.377,9.758-9.758,9.758s-9.758-4.377-9.758-9.758
				S176.521,93.204,181.902,93.204 M181.902,75.204c-15.33,0-27.758,12.428-27.758,27.758s12.428,27.758,27.758,27.758
				s27.758-12.428,27.758-27.758S197.232,75.204,181.902,75.204L181.902,75.204z"/>
		</g>
		<g>
			<path fill="#FFFFFF" d="M106.099,121.719c-10.343,0-18.757-8.415-18.757-18.757s8.415-18.757,18.757-18.757
				s18.757,8.415,18.757,18.757S116.442,121.719,106.099,121.719z"/>
			<path fill="#231F20" d="M106.099,93.205c5.38,0,9.757,4.377,9.757,9.757s-4.377,9.757-9.757,9.757s-9.757-4.377-9.757-9.757
				S100.719,93.205,106.099,93.205 M106.099,75.205c-15.33,0-27.757,12.427-27.757,27.757s12.427,27.757,27.757,27.757
				s27.757-12.427,27.757-27.757S121.429,75.205,106.099,75.205L106.099,75.205z"/>
		</g>
	</g>
</g>
<g id="Layer_3">
	<g>
		<path fill="#00AEEF" d="M144,231.87c-0.829,0-1.5-0.672-1.5-1.5c0-12.581-27.55-23.21-60.16-23.21c-0.829,0-1.5-0.672-1.5-1.5
			c0-32.61-10.629-60.16-23.21-60.16c-0.829,0-1.5-0.671-1.5-1.5s0.671-1.5,1.5-1.5c12.581,0,23.21-27.55,23.21-60.16
			c0-0.829,0.671-1.5,1.5-1.5c32.61,0,60.16-10.629,60.16-23.21c0-0.829,0.671-1.5,1.5-1.5s1.5,0.671,1.5,1.5
			c0,12.581,27.55,23.21,60.16,23.21c0.828,0,1.5,0.671,1.5,1.5c0,32.61,10.629,60.16,23.21,60.16c0.828,0,1.5,0.671,1.5,1.5
			s-0.672,1.5-1.5,1.5c-12.039,0-22.21,27.55-22.21,60.16c0,0.828-0.672,1.5-1.5,1.5c-33.152,0-61.16,10.629-61.16,23.21
			C145.5,231.198,144.829,231.87,144,231.87z"/>
		<path fill="#231F20" d="M144,57.63c0,13.66,27.58,24.71,61.66,24.71c0,34.08,11.05,61.66,24.71,61.66
			c-13.101,0-23.71,27.58-23.71,61.66c-34.63,0-62.66,11.05-62.66,24.71c0-13.66-27.58-24.71-61.66-24.71
			c0-34.08-11.05-61.66-24.71-61.66c13.66,0,24.71-27.58,24.71-61.66C116.42,82.34,144,71.29,144,57.63 M144,54.63
			c-1.657,0-3,1.343-3,3c0,5.221-5.892,10.576-16.166,14.693C113.542,76.848,98.45,79.34,82.34,79.34c-1.657,0-3,1.343-3,3
			c0,16.11-2.492,31.202-7.017,42.494C68.206,135.108,62.851,141,57.63,141c-1.657,0-3,1.343-3,3c0,1.657,1.343,3,3,3
			c5.221,0,10.576,5.893,14.693,16.166c4.525,11.293,7.017,26.384,7.017,42.494c0,1.657,1.343,3,3,3
			c16.11,0,31.202,2.492,42.494,7.018C135.108,219.794,141,225.149,141,230.37c0,1.657,1.343,3,3,3c1.657,0,3-1.343,3-3
			c0-5.213,5.994-10.566,16.444-14.687c11.486-4.529,26.834-7.023,43.216-7.023c1.657,0,3-1.343,3-3
			c0-34.569,10.914-58.66,20.71-58.66c1.657,0,3-1.343,3-3c0-1.657-1.343-3-3-3c-5.221,0-10.576-5.892-14.692-16.166
			c-4.525-11.292-7.018-26.384-7.018-42.494c0-1.657-1.343-3-3-3c-16.11,0-31.201-2.492-42.494-7.017
			C152.893,68.206,147,62.851,147,57.63C147,55.973,145.657,54.63,144,54.63L144,54.63z"/>
	</g>
	<g>
		<path fill="#231F20" d="M144.259,209.941c-0.195,0-0.39-0.038-0.574-0.114l-45.658-18.912c-0.367-0.152-0.659-0.444-0.812-0.812
			L78.3,144.439c-0.152-0.368-0.152-0.781,0-1.148l18.912-45.658c0.152-0.367,0.444-0.659,0.812-0.812l45.665-18.914
			c0.184-0.076,0.379-0.114,0.574-0.114s0.39,0.038,0.574,0.114l45.658,18.912c0.367,0.152,0.659,0.444,0.812,0.812l18.915,45.664
			c0.152,0.368,0.152,0.781,0,1.148l-18.912,45.659c-0.152,0.367-0.444,0.659-0.812,0.812l-45.664,18.914
			C144.649,209.903,144.454,209.941,144.259,209.941z"/>
		<path fill="#231F20" d="M144.262,79.292l45.658,18.912l18.915,45.664l-18.912,45.659l-45.664,18.914l-45.658-18.912
			l-18.915-45.665l18.912-45.658L144.262,79.292 M144.262,76.292c-0.39,0-0.78,0.076-1.148,0.229L97.45,95.435
			c-0.735,0.304-1.319,0.888-1.624,1.624l-18.912,45.658c-0.305,0.735-0.305,1.561,0,2.296l18.915,45.665
			c0.304,0.734,0.888,1.318,1.624,1.623l45.658,18.912c0.368,0.152,0.758,0.229,1.148,0.229s0.78-0.076,1.148-0.229l45.664-18.914
			c0.734-0.305,1.318-0.889,1.623-1.623l18.912-45.659c0.305-0.735,0.305-1.561,0-2.296l-18.915-45.664
			c-0.305-0.735-0.889-1.319-1.623-1.624L145.41,76.521C145.043,76.369,144.652,76.292,144.262,76.292L144.262,76.292z"/>
	</g>
	<g>
		<polygon fill="#ED1C24" points="147.88,142.37 171.13,119.112 180.756,142.37 		"/>
		<path fill="#231F20" d="M170.604,121.761l7.908,19.109h-27.011L170.604,121.761 M171.66,116.47h-0.01l-27.391,27.4H183
			L171.66,116.47L171.66,116.47z"/>
	</g>
	<g>
		<polygon fill="#3C2415" points="107.76,145.359 140.649,145.359 117.39,168.619 		"/>
		<path fill="#231F20" d="M137.027,146.859l-19.11,19.111l-7.912-19.111H137.027 M144.25,143.86h-38.73v0.01l11.34,27.39h0.01
			l27.39-27.39L144.25,143.86L144.25,143.86z"/>
	</g>
	<g>
		<polygon fill="#ED1C24" points="107.765,142.36 117.387,119.119 140.628,142.36 		"/>
		<path fill="#231F20" d="M117.914,121.767l19.093,19.093h-26.999L117.914,121.767 M116.86,116.47l-11.34,27.39h38.73L116.86,116.47
			L116.86,116.47z"/>
	</g>
	<g display="none">
		<polygon display="inline" fill="#3C2415" stroke="#231F20" stroke-miterlimit="10" points="168.71,82.338 119.29,82.338 
			144,57.628 		"/>
		<polygon display="inline" fill="#3C2415" stroke="#231F20" stroke-miterlimit="10" points="57.628,144 82.338,119.29 
			82.338,168.71 		"/>
		<polygon display="inline" fill="#3C2415" stroke="#231F20" stroke-miterlimit="10" points="119.29,205.662 168.71,205.662 
			144,230.372 		"/>
		<polygon display="inline" fill="#3C2415" stroke="#231F20" stroke-miterlimit="10" points="230.372,144 205.662,168.71 
			205.662,119.29 		"/>
		<polygon display="inline" fill="#3C2415" stroke="#231F20" stroke-miterlimit="10" points="82.338,170.712 117.288,205.662 
			82.338,205.662 		"/>
		<polygon display="inline" fill="#3C2415" stroke="#231F20" stroke-miterlimit="10" points="82.338,82.338 117.288,82.338 
			82.338,117.288 		"/>
		<polygon display="inline" fill="#3C2415" stroke="#231F20" stroke-miterlimit="10" points="205.662,82.338 205.662,117.288 
			170.712,82.338 		"/>
		<polygon display="inline" fill="#3C2415" stroke="#231F20" stroke-miterlimit="10" points="171.713,205.662 206.663,170.712 
			206.663,205.662 		"/>
	</g>
	<g>
		<polygon fill="#3C2415" points="119.518,172.729 144.26,147.987 169.003,172.729 144.26,182.982 		"/>
		<path fill="#231F20" d="M144.26,150.108l22.095,22.095l-22.095,9.156l-22.094-9.156L144.26,150.108 M144.26,145.866l-27.39,27.39
			l27.39,11.351l27.391-11.351L144.26,145.866L144.26,145.866z"/>
	</g>
	<g>
		<polygon fill="#3C2415" points="119.508,116.997 144.26,106.744 169.003,116.997 144.259,141.749 		"/>
		<path fill="#231F20" d="M144.26,108.367l22.096,9.156l-22.096,22.104l-22.104-22.104L144.26,108.367 M144.26,105.12l-27.4,11.35
			l27.39,27.39l0.01,0.01l27.391-27.4L144.26,105.12L144.26,105.12z"/>
	</g>
	<g>
		<polygon fill="#3C2415" points="147.881,145.37 180.756,145.37 171.13,168.618 		"/>
		<path fill="#231F20" d="M178.511,146.87l-7.907,19.1l-19.101-19.1H178.511 M183,143.87h-38.74l27.391,27.39h0.01L183,143.87
			L183,143.87z"/>
	</g>
	
		<polyline fill="none" stroke="#FFFFFF" stroke-width="6" stroke-linecap="round" stroke-linejoin="round" stroke-miterlimit="10" points="
		116.87,171.26 144.26,143.87 171.65,171.26 	"/>
</g>
</svg>
