<?xml version="1.0" encoding="utf-8"?>
<!-- Generator: Adobe Illustrator 16.0.3, SVG Export Plug-In . SVG Version: 6.00 Build 0)  -->
<!DOCTYPE svg PUBLIC "-//W3C//DTD SVG 1.1//EN" "http://www.w3.org/Graphics/SVG/1.1/DTD/svg11.dtd">
<svg version="1.1" xmlns="http://www.w3.org/2000/svg" xmlns:xlink="http://www.w3.org/1999/xlink" x="0px" y="0px"
	 width="99.092px" height="83.001px" viewBox="0 0 99.092 83.001" enable-background="new 0 0 99.092 83.001" xml:space="preserve">
<g id="Layer_1" display="none">
	<g display="inline">
		<defs>
			<rect id="SVGID_1_" x="-143.369" y="-19.104" width="288" height="288"/>
		</defs>
		<clipPath id="SVGID_2_">
			<use xlink:href="#SVGID_1_"  overflow="visible"/>
		</clipPath>
		<g clip-path="url(#SVGID_2_)">
			
				<image overflow="visible" width="1024" height="1024" xlink:href="7E448EE2.jpg"  transform="matrix(0 0.7861 -1 0 870.4316 -136.3706)">
			</image>
		</g>
	</g>
</g>
<g id="Layer_2" display="none">
	<g>
		<polygon display="inline" fill="#594A42" stroke="#594A42" stroke-linejoin="round" stroke-miterlimit="10" points="
			-82.185,89.757 -82.185,168.647 -76.234,174.587 -66.524,164.877 -69.364,162.037 -69.364,94.507 -50.274,75.417 -59.064,66.637 
					"/>
		<polygon display="inline" fill="#594A42" stroke="#594A42" stroke-linejoin="round" stroke-miterlimit="10" points="
			-35.035,184.633 -26.245,193.414 -3.125,170.293 -3.125,91.403 -9.075,85.463 -18.785,95.173 -15.945,98.014 -15.945,165.543 		
			"/>
		<polygon display="inline" fill="#594A42" stroke="#594A42" stroke-linejoin="round" stroke-miterlimit="10" points="
			-61.52,139.781 -61.52,159.872 -41.89,179.491 -33.299,170.901 -48.43,155.771 -48.43,142.691 -56.43,134.691 		"/>
		<polygon display="inline" fill="#594A42" stroke="#594A42" stroke-linejoin="round" stroke-miterlimit="10" points="
			-61.52,99.675 -61.52,119.766 -41.89,139.386 -36.879,144.396 -36.879,157.476 -28.879,165.476 -23.79,160.386 -23.79,140.285 
			-43.419,120.675 -48.43,115.666 -48.43,102.585 -56.43,94.585 		"/>
		<polygon display="inline" fill="#594A42" stroke="#594A42" stroke-linejoin="round" stroke-miterlimit="10" points="
			-23.79,120.27 -23.79,100.178 -43.419,80.559 -52.01,89.149 -36.879,104.279 -36.879,117.359 -28.879,125.358 		"/>
	</g>
	<g>
		<polygon display="inline" fill="#594A42" stroke="#594A42" stroke-linejoin="round" stroke-miterlimit="10" points="
			-82.185,-22.899 -82.185,55.991 -76.234,61.931 -66.524,52.221 -69.364,49.381 -69.364,-18.149 -50.274,-37.239 -59.064,-46.019 
					"/>
		<polygon display="inline" fill="#594A42" stroke="#594A42" stroke-linejoin="round" stroke-miterlimit="10" points="
			-35.035,71.977 -26.245,80.758 -3.125,57.637 -3.125,-21.253 -9.075,-27.193 -18.785,-17.483 -15.945,-14.643 -15.945,52.887 		
			"/>
		<polygon display="inline" fill="#594A42" stroke="#594A42" stroke-linejoin="round" stroke-miterlimit="10" points="
			-61.52,27.125 -61.52,47.216 -41.89,66.835 -33.299,58.245 -48.43,43.115 -48.43,30.035 -56.43,22.035 		"/>
		<polygon display="inline" fill="#594A42" stroke="#594A42" stroke-linejoin="round" stroke-miterlimit="10" points="
			-61.52,-12.981 -61.52,7.109 -41.89,26.729 -36.879,31.739 -36.879,44.819 -28.879,52.819 -23.79,47.729 -23.79,27.629 
			-43.419,8.019 -48.43,3.009 -48.43,-10.071 -56.43,-18.071 		"/>
		<polygon display="inline" fill="#594A42" stroke="#594A42" stroke-linejoin="round" stroke-miterlimit="10" points="-23.79,7.613 
			-23.79,-12.478 -43.419,-32.097 -52.01,-23.507 -36.879,-8.377 -36.879,4.703 -28.879,12.702 		"/>
	</g>
	<g>
		<polygon display="inline" fill="#594A42" stroke="#594A42" stroke-linejoin="round" stroke-miterlimit="10" points="
			-61.717,252.437 -61.717,272.527 -42.087,292.146 -33.497,283.557 -48.627,268.427 -48.627,255.347 -56.627,247.347 		"/>
		<polygon display="inline" fill="#594A42" stroke="#594A42" stroke-linejoin="round" stroke-miterlimit="10" points="
			-82.382,202.412 -82.382,281.303 -76.432,287.242 -66.722,277.532 -69.562,274.692 -69.562,207.162 -50.472,188.072 
			-59.262,179.293 		"/>
		<polygon display="inline" fill="#594A42" stroke="#594A42" stroke-linejoin="round" stroke-miterlimit="10" points="
			-35.232,297.288 -26.442,306.069 -3.322,282.948 -3.322,204.059 -9.272,198.119 -18.982,207.828 -16.142,210.669 -16.142,278.198 
					"/>
		<polygon display="inline" fill="#594A42" stroke="#594A42" stroke-linejoin="round" stroke-miterlimit="10" points="
			-61.717,212.33 -61.717,232.421 -42.087,252.041 -37.077,257.051 -37.077,270.131 -29.077,278.131 -23.987,273.041 
			-23.987,252.94 -43.617,233.33 -48.627,228.32 -48.627,215.24 -56.627,207.24 		"/>
		<polygon display="inline" fill="#594A42" stroke="#594A42" stroke-linejoin="round" stroke-miterlimit="10" points="
			-23.987,232.925 -23.987,212.834 -43.617,193.215 -52.207,201.805 -37.077,216.935 -37.077,230.015 -29.077,238.014 		"/>
	</g>
	<g>
		<g display="inline">
			<polygon fill="#594A42" stroke="#594A42" stroke-linejoin="round" stroke-miterlimit="10" points="-48.782,79.339 
				-48.782,180.128 -41.345,187.716 -29.207,175.312 -32.757,171.683 -32.757,85.408 -8.895,61.019 -19.882,49.802 			"/>
			<polygon fill="#594A42" stroke="#594A42" stroke-linejoin="round" stroke-miterlimit="10" points="10.155,200.55 21.143,211.769 
				50.043,182.229 50.043,81.443 42.605,73.854 30.468,86.258 34.018,89.887 34.018,176.161 			"/>
			<polygon fill="#594A42" stroke="#594A42" stroke-linejoin="round" stroke-miterlimit="10" points="-22.95,143.249 
				-22.95,168.917 1.587,193.981 12.324,183.007 -6.589,163.677 -6.589,146.968 -16.589,136.747 			"/>
			<polygon fill="#594A42" stroke="#594A42" stroke-linejoin="round" stroke-miterlimit="10" points="-22.95,92.01 -22.95,117.677 
				1.587,142.743 7.85,149.144 7.85,165.854 17.85,176.075 24.212,169.573 24.212,143.892 -0.325,118.839 -6.589,112.439 
				-6.589,95.729 -16.589,85.508 			"/>
			<polygon fill="#594A42" stroke="#594A42" stroke-linejoin="round" stroke-miterlimit="10" points="24.212,118.322 24.212,92.653 
				-0.325,67.588 -11.063,78.563 7.85,97.893 7.85,114.604 17.85,124.823 			"/>
		</g>
		<g display="inline">
			<polygon fill="#594A42" stroke="#594A42" stroke-linejoin="round" stroke-miterlimit="10" points="-48.782,-64.587 
				-48.782,36.201 -41.345,43.789 -29.207,31.383 -32.757,27.755 -32.757,-58.519 -8.895,-82.908 -19.882,-94.125 			"/>
			<polygon fill="#594A42" stroke="#594A42" stroke-linejoin="round" stroke-miterlimit="10" points="10.155,56.623 21.143,67.842 
				50.043,38.303 50.043,-62.485 42.605,-70.073 30.468,-57.668 34.018,-54.039 34.018,32.235 			"/>
			<polygon fill="#594A42" stroke="#594A42" stroke-linejoin="round" stroke-miterlimit="10" points="-22.95,-0.678 -22.95,24.99 
				1.587,50.055 12.324,39.08 -6.589,19.751 -6.589,3.041 -16.589,-7.18 			"/>
			<polygon fill="#594A42" stroke="#594A42" stroke-linejoin="round" stroke-miterlimit="10" points="-22.95,-51.916 -22.95,-26.25 
				1.587,-1.183 7.85,5.217 7.85,21.928 17.85,32.148 24.212,25.646 24.212,-0.034 -0.325,-25.087 -6.589,-31.487 -6.589,-48.198 
				-16.589,-58.418 			"/>
			<polygon fill="#594A42" stroke="#594A42" stroke-linejoin="round" stroke-miterlimit="10" points="24.212,-25.606 
				24.212,-51.274 -0.325,-76.338 -11.063,-65.364 7.85,-46.035 7.85,-29.323 17.85,-19.104 			"/>
		</g>
		<g display="inline">
			<polygon fill="#594A42" stroke="#594A42" stroke-linejoin="round" stroke-miterlimit="10" points="-22.95,287.323 
				-22.95,312.991 1.587,338.056 12.325,327.081 -6.588,307.751 -6.588,291.042 -16.588,280.821 			"/>
			<polygon fill="#594A42" stroke="#594A42" stroke-linejoin="round" stroke-miterlimit="10" points="-48.781,223.413 
				-48.781,324.202 -41.344,331.79 -29.206,319.386 -32.756,315.757 -32.756,229.481 -8.894,205.093 -19.881,193.876 			"/>
			<polygon fill="#594A42" stroke="#594A42" stroke-linejoin="round" stroke-miterlimit="10" points="10.156,344.624 
				21.144,355.843 50.044,326.304 50.044,225.517 42.605,217.929 30.469,230.333 34.019,233.962 34.019,320.235 			"/>
			<polygon fill="#594A42" stroke="#594A42" stroke-linejoin="round" stroke-miterlimit="10" points="-22.95,236.083 
				-22.95,261.751 1.587,286.817 7.85,293.218 7.85,309.929 17.85,320.149 24.212,313.647 24.212,287.966 -0.325,262.913 
				-6.588,256.513 -6.588,239.802 -16.588,229.581 			"/>
			<polygon fill="#594A42" stroke="#594A42" stroke-linejoin="round" stroke-miterlimit="10" points="24.212,262.396 
				24.212,236.728 -0.325,211.663 -11.063,222.636 7.85,241.966 7.85,258.677 17.85,268.896 			"/>
		</g>
	</g>
	<g display="inline">
		<g>
			<g>
				<polygon fill="#A68F63" points="-48.782,79.339 -48.782,180.128 -41.345,187.716 -29.207,175.312 -32.757,171.683 
					-32.757,85.408 -8.895,61.019 -19.882,49.802 				"/>
			</g>
			<g>
				<polygon fill="#A68F63" points="10.155,200.55 21.143,211.769 50.043,182.229 50.043,81.443 42.605,73.854 30.468,86.258 
					34.018,89.887 34.018,176.161 				"/>
			</g>
			<g>
				<polygon fill="#A68F63" points="-22.95,143.249 -22.95,168.917 1.587,193.981 12.324,183.007 -6.589,163.677 -6.589,146.968 
					-16.589,136.747 				"/>
			</g>
			<g>
				<polygon fill="#A68F63" points="-22.95,92.01 -22.95,117.677 1.587,142.743 7.85,149.144 7.85,165.854 17.85,176.075 
					24.212,169.573 24.212,143.892 -0.325,118.839 -6.589,112.439 -6.589,95.729 -16.589,85.508 				"/>
			</g>
			<g>
				<polygon fill="#A68F63" points="24.212,118.322 24.212,92.653 -0.325,67.588 -11.063,78.563 7.85,97.893 7.85,114.604 
					17.85,124.823 				"/>
			</g>
		</g>
		<g>
			<g>
				<polygon fill="#A68F63" points="-29.209,31.386 -41.349,43.786 -48.779,36.206 -48.779,-19.104 -32.759,-19.104 -32.759,27.755 
									"/>
			</g>
			<g>
				<polygon fill="#A68F63" points="50.041,-19.104 50.041,38.306 21.141,67.846 10.15,56.625 34.021,32.235 34.021,-19.104 				"/>
			</g>
			<g>
				<polygon fill="#A68F63" points="-22.95,-0.678 -22.95,24.99 1.587,50.055 12.324,39.08 -6.589,19.751 -6.589,3.041 
					-16.589,-7.18 				"/>
			</g>
			<g>
				<polygon fill="#A68F63" points="24.211,-0.035 24.211,25.646 17.851,32.146 7.851,21.925 7.851,5.215 1.591,-1.185 
					-15.949,-19.104 5.531,-19.104 				"/>
			</g>
		</g>
		<g>
			<g>
				<polygon fill="#A68F63" points="-8.89,205.096 -32.759,229.485 -32.759,268.896 -48.779,268.896 -48.779,223.415 
					-19.879,193.876 				"/>
			</g>
			<g>
				<polygon fill="#A68F63" points="50.041,225.516 50.041,268.896 34.021,268.896 34.021,233.966 30.471,230.336 42.601,217.926 
									"/>
			</g>
			<g>
				<polygon fill="#A68F63" points="5.531,268.896 -15.959,268.896 -22.949,261.756 -22.949,236.086 -16.589,229.586 
					-6.589,239.806 -6.589,256.516 -0.329,262.915 				"/>
			</g>
			<g>
				<polygon fill="#A68F63" points="24.212,262.396 24.212,236.728 -0.325,211.663 -11.063,222.636 7.85,241.966 7.85,258.677 
					17.85,268.896 				"/>
			</g>
		</g>
	</g>
</g>
<g id="Layer_3">
	<g display="none">
		<g display="inline">
			<g>
				<polygon fill="#A68F63" points="0,220.655 0,194.988 24.537,169.923 30.8,163.522 30.8,146.812 40.8,136.591 47.163,143.093 
					47.163,168.774 22.625,193.826 16.361,200.227 16.361,216.937 6.361,227.157 				"/>
			</g>
			<g>
				<polygon fill="#A68F63" points="0,188.89 0,163.224 24.537,138.157 30.8,131.757 30.8,115.046 40.8,104.825 47.162,111.327 
					47.162,137.009 22.625,162.062 16.361,168.462 16.361,185.172 6.361,195.393 				"/>
			</g>
		</g>
		<g display="inline">
			<g>
				<polygon fill="#A68F63" points="203.333,80.268 203.333,54.601 227.87,29.534 234.133,23.134 234.133,6.423 244.133,-3.798 
					250.495,2.704 250.495,28.386 225.958,53.438 219.694,59.839 219.694,76.55 209.694,86.771 				"/>
			</g>
			<g>
				<polygon fill="#A68F63" points="203.333,112.032 203.333,86.366 227.87,61.3 234.133,54.899 234.133,38.188 244.133,27.968 
					250.495,34.47 250.495,60.151 225.958,85.204 219.694,91.604 219.694,108.314 209.694,118.535 				"/>
			</g>
		</g>
		<g display="inline">
			<g>
				<polygon fill="#A68F63" points="-63.501,63.4 -63.501,37.734 -38.964,12.668 -32.702,6.268 -32.702,-10.443 -22.702,-20.664 
					-16.338,-14.162 -16.338,11.52 -40.876,36.572 -47.14,42.973 -47.14,59.683 -57.14,69.903 				"/>
			</g>
			<g>
				<polygon fill="#A68F63" points="-63.501,31.636 -63.501,5.969 -38.964,-19.098 -32.702,-25.498 -32.702,-42.209 -22.702,-52.43 
					-16.339,-45.928 -16.339,-20.246 -40.876,4.807 -47.14,11.207 -47.14,27.918 -57.14,38.139 				"/>
			</g>
		</g>
		<g display="inline">
			<g>
				<polygon fill="#A68F63" points="-106.951,218.291 -106.951,192.625 -82.414,167.559 -76.151,161.158 -76.151,144.447 
					-66.151,134.227 -59.789,140.729 -59.789,166.41 -84.326,191.463 -90.589,197.863 -90.589,214.574 -100.589,224.795 				"/>
			</g>
			<g>
				<polygon fill="#A68F63" points="-106.951,250.057 -106.951,224.391 -82.414,199.324 -76.151,192.924 -76.151,176.213 
					-66.151,165.992 -59.789,172.494 -59.789,198.176 -84.326,223.229 -90.589,229.629 -90.589,246.338 -100.589,256.559 				"/>
			</g>
		</g>
		<g display="inline">
			<g>
				<polygon fill="#A68F63" points="99.094,220.655 99.094,194.988 74.557,169.923 68.294,163.522 68.294,146.812 58.294,136.591 
					51.931,143.093 51.931,168.774 76.469,193.826 82.732,200.227 82.732,216.937 92.732,227.157 				"/>
			</g>
			<g>
				<polygon fill="#A68F63" points="99.094,188.89 99.094,163.224 74.557,138.157 68.294,131.757 68.294,115.046 58.294,104.825 
					51.932,111.327 51.932,137.009 76.469,162.062 82.732,168.462 82.732,185.172 92.732,195.393 				"/>
			</g>
		</g>
		<g display="inline">
			<g>
				<polygon fill="#A68F63" points="302.427,80.268 302.427,54.601 277.89,29.534 271.627,23.134 271.627,6.423 261.627,-3.798 
					255.265,2.704 255.265,28.386 279.802,53.438 286.065,59.839 286.065,76.55 296.065,86.771 				"/>
			</g>
			<g>
				<polygon fill="#A68F63" points="302.427,112.032 302.427,86.366 277.89,61.3 271.627,54.899 271.627,38.188 261.627,27.968 
					255.265,34.47 255.265,60.151 279.802,85.204 286.065,91.604 286.065,108.314 296.065,118.535 				"/>
			</g>
		</g>
		<g display="inline">
			<g>
				<polygon fill="#A68F63" points="302.427,29.028 302.427,3.362 277.89,-21.704 271.627,-28.104 271.627,-44.815 261.627,-55.036 
					255.264,-48.534 255.264,-22.853 279.802,2.2 286.065,8.601 286.065,25.311 296.065,35.531 				"/>
			</g>
			<g>
				<polygon fill="#A68F63" points="302.427,-2.736 302.427,-28.403 277.89,-53.47 271.627,-59.87 271.627,-76.581 261.627,-86.802 
					255.265,-80.3 255.265,-54.618 279.802,-29.565 286.065,-23.165 286.065,-6.454 296.065,3.767 				"/>
			</g>
		</g>
		<g display="inline">
			<g>
				<polygon fill="#A68F63" points="99.094,271.894 99.094,246.228 74.557,221.161 68.294,214.761 68.294,198.05 58.294,187.829 
					51.932,194.331 51.932,220.013 76.469,245.065 82.732,251.466 82.732,268.177 92.732,278.397 				"/>
			</g>
			<g>
				<polygon fill="#A68F63" points="99.094,303.659 99.094,277.993 74.557,252.927 68.294,246.526 68.294,229.815 58.294,219.595 
					51.932,226.097 51.932,251.778 76.469,276.831 82.732,283.231 82.732,299.94 92.732,310.161 				"/>
			</g>
		</g>
	</g>
	<g>
		<g>
			<polygon fill="#2E2E2E" points="47.16,60.091 44.18,57.051 47.16,54.011 47.16,28.321 40.8,21.821 30.8,32.04 30.8,48.751 
				24.54,55.15 0,80.221 0,83.001 18.77,83.001 22.62,79.061 30.8,70.71 30.8,80.521 28.37,83.001 47.16,83.001 			"/>
		</g>
		<g>
			<polygon fill="#2E2E2E" points="47.161,2.771 47.161,0 28.371,0 24.541,3.92 16.361,12.281 16.361,2.461 18.771,0 0.001,0 
				0.001,22.891 2.98,25.94 0.001,28.99 0.001,54.65 6.361,61.15 16.361,50.931 16.361,34.221 22.621,27.82 			"/>
		</g>
		<g>
			<polygon fill="#2E2E2E" points="51.932,60.091 54.912,57.051 51.932,54.011 51.932,28.321 58.292,21.821 68.292,32.04 
				68.292,48.751 74.552,55.15 99.092,80.221 99.092,83.001 80.322,83.001 76.472,79.061 68.292,70.71 68.292,80.521 70.722,83.001 
				51.932,83.001 			"/>
		</g>
		<g>
			<polygon fill="#2E2E2E" points="51.933,2.771 51.933,0 70.723,0 74.553,3.92 82.732,12.281 82.732,2.461 80.323,0 99.093,0 
				99.093,22.891 96.113,25.94 99.093,28.99 99.093,54.65 92.732,61.15 82.732,50.931 82.732,34.221 76.473,27.82 			"/>
		</g>
	</g>
	<rect x="104.097" y="25.063" fill="#1E2526" width="27.385" height="24.833"/>
	<rect x="126.445" y="60.396" fill="#1E2526" width="27.385" height="24.833"/>
</g>
</svg>
