<?xml version="1.0" encoding="utf-8"?>
<!-- Generator: Adobe Illustrator 16.0.3, SVG Export Plug-In . SVG Version: 6.00 Build 0)  -->
<!DOCTYPE svg PUBLIC "-//W3C//DTD SVG 1.1//EN" "http://www.w3.org/Graphics/SVG/1.1/DTD/svg11.dtd">
<svg version="1.1" id="Layer_1" xmlns="http://www.w3.org/2000/svg" xmlns:xlink="http://www.w3.org/1999/xlink" x="0px" y="0px"
	 width="230.4px" height="201.6px" viewBox="0 0 230.4 201.6" enable-background="new 0 0 230.4 201.6" xml:space="preserve">
<g display="none">
	<path display="inline" d="M50.071,179.991c0,3.828-1.192,6.953-3.574,9.375c-2.384,2.423-5.489,3.633-9.315,3.633H-8.991
		c-3.828,0-6.973-1.21-9.434-3.633c-2.461-2.422-3.691-5.547-3.691-9.375v-46.523h16.289v45.117h39.609v-43.711l-50.625-61.172
		c-3.516-4.22-5.273-8.866-5.273-13.945V22.608c0-3.826,1.23-6.952,3.691-9.375C-15.964,10.812-12.82,9.6-8.991,9.6h46.173
		c3.826,0,6.933,1.212,9.315,3.633c2.382,2.423,3.574,5.549,3.574,9.375v42.656H33.782v-41.25H-5.827v38.672l50.859,61.172
		c3.358,4.063,5.039,8.634,5.039,13.711V179.991z"/>
	<path display="inline" d="M151.556,107.101c0,3.828-1.23,6.974-3.691,9.435s-5.606,3.69-9.434,3.69H95.188v72.773H78.899V9.601
		h59.531c3.826,0,6.973,1.212,9.434,3.633c2.461,2.423,3.691,5.549,3.691,9.375L151.556,107.101L151.556,107.101z M135.267,105.694
		v-81.68H95.188v81.68H135.267z"/>
	<path display="inline" d="M251.517,179.991c0,3.828-1.212,6.953-3.634,9.375c-2.422,2.423-5.548,3.633-9.375,3.633h-48.163
		c-3.828,0-6.954-1.21-9.375-3.633c-2.423-2.422-3.634-5.547-3.634-9.375V22.608c0-3.826,1.211-6.952,3.634-9.375
		c2.421-2.421,5.547-3.633,9.375-3.633h48.163c3.827,0,6.953,1.212,9.375,3.633c2.422,2.423,3.634,5.549,3.634,9.375v42.656H235.11
		v-41.25h-41.484v154.57h41.484v-63.398h-19.57v-14.063h35.978V179.991L251.517,179.991z"/>
</g>
<g display="none">
	<path display="inline" d="M50.07,65.26V22.61c0-3.829-1.19-6.949-3.57-9.38c-2.39-2.42-5.49-3.63-9.319-3.63H-8.99
		c-3.829,0-6.97,1.21-9.43,3.63c-2.47,2.431-3.7,5.551-3.7,9.38v37.15c0,5.08,1.761,9.72,5.28,13.94L-5.83,87l39.61,47.87v43.72
		H-5.83v-45.12h-16.29v46.521c0,3.828,1.23,6.96,3.7,9.38c2.46,2.42,5.601,3.63,9.43,3.63H37.18c3.829,0,6.93-1.21,9.319-3.63
		c2.38-2.42,3.57-5.552,3.57-9.38V137.57c0-5.078-1.68-9.648-5.04-13.71L33.78,110.33L-5.83,62.69V24.01h39.61v41.25H50.07z"/>
	<path display="inline" d="M151.556,107.101c0,3.828-1.23,6.974-3.691,9.435s-5.606,3.69-9.434,3.69H95.188v72.773H78.899V9.601
		h59.531c3.826,0,6.973,1.212,9.434,3.633c2.461,2.423,3.691,5.549,3.691,9.375L151.556,107.101L151.556,107.101z M135.267,105.694
		v-81.68H95.188v81.68H135.267z"/>
	<polygon display="inline" fill="none" stroke="#000000" stroke-miterlimit="10" points="33.78,24.01 33.78,110.33 -5.83,62.69 
		-5.83,24.01 	"/>
	<polygon display="inline" fill="none" stroke="#000000" stroke-miterlimit="10" points="33.78,134.87 33.78,178.59 -5.83,178.59 
		-5.83,87 	"/>
	<path display="inline" d="M47.532,9.6H7.922l-16.29,14.41v154.58L7.922,193h39.61l16.29-14.41V24.01L47.532,9.6z M47.532,178.59
		H7.922V24.01h39.61V178.59z"/>
	<line display="inline" fill="none" x1="135.03" y1="127.689" x2="151.32" y2="127.689"/>
</g>
<g>
	<polygon fill="#A68F63" points="62.311,69.13 62.311,24.01 22.701,24.01 22.701,69.13 62.311,108.74 78.601,125.03 78.601,178.59 
		62.311,193 22.701,193 6.411,178.59 6.411,117.18 22.701,133.47 22.701,178.59 62.311,178.59 62.311,133.47 6.411,77.569 
		6.411,24.01 22.701,9.6 62.311,9.6 78.601,24.01 78.601,85.42 	"/>
	<path fill="#A68F63" d="M134.501,9.6H94.891l-16.29,14.41v154.58L94.891,193v-72.771h39.609l16.289-14.54V24.01L134.501,9.6z
		 M134.501,105.689H94.891V24.01h39.609V105.689z"/>
	<polygon fill="#A68F63" points="206.69,81.56 206.69,24.01 167.091,24.01 167.091,178.59 206.69,178.59 206.69,115.189 
		188.001,115.189 202.069,101.119 208.921,101.119 222.989,115.189 222.989,178.59 206.69,193 167.091,193 150.79,178.59 
		150.79,24.01 167.091,9.6 206.69,9.6 222.989,24.01 222.989,65.26 	"/>
</g>
</svg>
