<?xml version="1.0" encoding="utf-8"?>
<!-- Generator: Adobe Illustrator 16.0.3, SVG Export Plug-In . SVG Version: 6.00 Build 0)  -->
<!DOCTYPE svg PUBLIC "-//W3C//DTD SVG 1.1//EN" "http://www.w3.org/Graphics/SVG/1.1/DTD/svg11.dtd">
<svg version="1.1" xmlns="http://www.w3.org/2000/svg" xmlns:xlink="http://www.w3.org/1999/xlink" x="0px" y="0px" width="288px"
	 height="288px" viewBox="0 0 288 288" enable-background="new 0 0 288 288" xml:space="preserve">
<g id="Layer_1">
	<g>
		<circle fill="#262312" cx="144" cy="144" r="144"/>
	</g>
	<g>
		<circle fill="#595647" cx="144" cy="144" r="132.236"/>
	</g>
</g>
<g id="Swamp" display="none">
	<g display="inline">
		<g>
			<path fill="#F3D688" d="M144,233.66c-49.439,0-89.66-40.222-89.66-89.66c0-35.002,20.58-67.023,52.429-81.579
				c0.407-0.194,0.864-0.4,1.321-0.585c3.688-1.596,7.049-2.415,9.945-2.415c4.522,0,10.348,1.995,12.468,11.476
				c0.047,0.162,0.069,0.296,0.082,0.372L144,134.38l13.434-63.207c0.013-0.077,0.034-0.17,0.061-0.264
				c2.118-9.493,7.947-11.488,12.471-11.488c2.896,0,6.257,0.818,9.989,2.433c0.413,0.167,0.87,0.373,1.306,0.58
				c31.821,14.542,52.4,46.564,52.4,81.566C233.66,193.438,193.438,233.66,144,233.66z"/>
			<path fill="#4F442F" d="M169.965,61.421c3.023,0,6.263,1,9.195,2.269c0.42,0.17,0.84,0.36,1.24,0.55
				c30.239,13.82,51.26,44.34,51.26,79.76c0,48.41-39.25,87.66-87.66,87.66S56.34,192.41,56.34,144c0-35.42,21.02-65.94,51.26-79.76
				c0.4-0.19,0.82-0.38,1.24-0.55c2.932-1.268,6.173-2.269,9.195-2.269c4.698,0,8.868,2.417,10.535,9.999
				c0.02,0.05,0.03,0.11,0.04,0.17L144,144l15.39-72.41c0.011-0.06,0.021-0.12,0.04-0.17
				C161.097,63.838,165.269,61.422,169.965,61.421 M169.967,57.421h-0.002c-4.296,0-11.861,1.693-14.409,12.991
				c-0.046,0.171-0.074,0.313-0.092,0.408L144,124.759l-11.461-53.926c-0.023-0.127-0.054-0.272-0.098-0.433
				c-2.55-11.288-10.112-12.979-14.406-12.979c-3.159,0-6.772,0.868-10.74,2.579c-0.43,0.175-0.884,0.376-1.384,0.614
				C73.368,75.5,52.34,108.229,52.34,144c0,50.542,41.119,91.66,91.66,91.66c50.542,0,91.66-41.118,91.66-91.66
				c0-35.771-21.027-68.499-53.569-83.385c-0.503-0.239-0.957-0.44-1.386-0.615C176.737,58.289,173.125,57.421,169.967,57.421
				L169.967,57.421z"/>
		</g>
		<g>
			<g>
				<path fill="#4F442F" d="M143.925,143.87c0,0,2.85-2.406,7.441-5.466c1.143-0.772,2.395-1.586,3.731-2.424
					c1.328-0.854,2.758-1.702,4.249-2.559c1.5-0.843,3.072-1.672,4.682-2.496c1.601-0.838,3.228-1.689,4.854-2.541
					c6.486-3.44,12.949-6.919,17.847-9.441c4.892-2.533,8.153-4.221,8.153-4.221l0.148,0.261c0,0-3.108,1.955-7.771,4.888
					c-4.657,2.943-10.933,6.751-17.186,10.598c-1.559,0.97-3.117,1.941-4.65,2.896c-1.526,0.969-3.039,1.904-4.525,2.77
					c-1.494,0.851-2.95,1.654-4.359,2.365c-1.399,0.729-2.735,1.395-3.981,1.988c-4.964,2.406-8.483,3.643-8.483,3.643
					L143.925,143.87z"/>
			</g>
			<g>
				<path fill="#4F442F" d="M144.059,143.862c0,0,4.157,1.038,10.144,3.177c1.5,0.526,3.115,1.122,4.813,1.776
					c1.705,0.637,3.479,1.363,5.305,2.137c1.82,0.789,3.682,1.648,5.565,2.541c1.89,0.878,3.809,1.77,5.729,2.661
					c7.694,3.53,15.405,7.02,21.15,9.729c5.748,2.698,9.581,4.497,9.581,4.497l-0.117,0.275c0,0-3.953-1.516-9.883-3.789
					c-5.935-2.264-13.794-5.403-21.672-8.503c-1.974-0.766-3.946-1.531-5.889-2.284c-1.949-0.739-3.858-1.486-5.688-2.251
					c-1.823-0.78-3.577-1.555-5.218-2.343c-1.648-0.77-3.196-1.521-4.616-2.238c-5.691-2.832-9.32-5.109-9.32-5.109L144.059,143.862
					z"/>
			</g>
			<g>
				<path fill="#4F442F" d="M144.142,143.859c0,0,0.424,0.096,1.076,0.353c0.656,0.252,1.538,0.667,2.498,1.263
					c0.955,0.601,2.021,1.35,2.979,2.333c0.945,0.996,1.733,2.276,2.68,3.4c0.932,1.139,1.877,2.264,2.723,3.357
					c0.862,1.079,1.64,2.112,2.309,2.995c1.35,1.755,2.21,2.964,2.21,2.964l-0.285,0.281c0,0-1.199-0.874-2.938-2.244
					c-0.875-0.68-1.899-1.469-2.968-2.343c-1.085-0.858-2.198-1.817-3.326-2.762c-1.112-0.959-2.384-1.763-3.368-2.719
					c-0.973-0.97-1.709-2.044-2.299-3.006c-0.584-0.966-0.989-1.853-1.234-2.513c-0.249-0.654-0.34-1.079-0.34-1.079
					L144.142,143.859z"/>
			</g>
			<g>
				<path fill="#4F442F" d="M144.148,144.024c0,0-0.03,4.382-0.7,10.854c-0.159,1.62-0.357,3.37-0.594,5.217
					c-0.217,1.85-0.506,3.79-0.829,5.795c-0.338,2.001-0.735,4.062-1.159,6.152c-0.409,2.093-0.824,4.219-1.239,6.345
					c-1.62,8.511-3.196,17.029-4.478,23.402c-1.27,6.374-2.116,10.624-2.116,10.624l-0.296-0.049c0,0,0.543-4.299,1.357-10.747
					c0.803-6.45,2.005-15.029,3.163-23.615c0.279-2.148,0.559-4.297,0.834-6.411c0.26-2.117,0.536-4.197,0.849-6.203
					c0.329-2.003,0.669-3.936,1.049-5.759c0.36-1.826,0.727-3.55,1.089-5.136c1.414-6.351,2.773-10.517,2.773-10.517
					L144.148,144.024z"/>
			</g>
			<g>
				<path fill="#4F442F" d="M144.152,144.129c0,0-0.096,0.474-0.359,1.22c-0.25,0.758-0.7,1.763-1.307,2.91
					c-0.62,1.137-1.415,2.402-2.441,3.609c-1.047,1.189-2.401,2.258-3.584,3.47c-1.2,1.198-2.385,2.409-3.54,3.508
					c-1.137,1.114-2.227,2.128-3.158,3.001c-1.851,1.754-3.127,2.888-3.127,2.888l-0.305-0.26c0,0,0.913-1.442,2.347-3.551
					c0.711-1.06,1.537-2.299,2.453-3.601c0.898-1.315,1.903-2.681,2.893-4.058c1.006-1.363,1.842-2.871,2.848-4.097
					c1.026-1.207,2.147-2.195,3.169-2.99c1.035-0.784,1.954-1.39,2.662-1.759c0.694-0.38,1.146-0.55,1.146-0.55L144.152,144.129z"/>
			</g>
			<g>
				<path fill="#4F442F" d="M143.984,144.149c0,0-4.521,0.203-11.236-0.124c-1.68-0.072-3.497-0.178-5.416-0.316
					c-1.921-0.119-3.94-0.305-6.027-0.521c-2.085-0.231-4.234-0.519-6.417-0.832c-2.184-0.297-4.402-0.599-6.62-0.901
					c-8.877-1.167-17.759-2.289-24.41-3.231c-6.652-0.93-11.087-1.549-11.087-1.549l0.031-0.299c0,0,4.467,0.314,11.167,0.786
					c6.702,0.459,15.623,1.205,24.548,1.907c2.233,0.165,4.465,0.33,6.663,0.493c2.199,0.147,4.361,0.313,6.449,0.519
					c2.086,0.222,4.1,0.46,6.003,0.742c1.906,0.263,3.706,0.537,5.364,0.815c6.637,1.075,11.017,2.212,11.017,2.212L143.984,144.149
					z"/>
			</g>
			<g>
				<path fill="#4F442F" d="M143.893,144.169c0,0-0.484-0.03-1.263-0.19c-0.788-0.146-1.849-0.455-3.075-0.901
					c-1.217-0.46-2.585-1.077-3.93-1.931c-1.33-0.876-2.581-2.074-3.952-3.083c-1.359-1.028-2.729-2.039-3.983-3.034
					c-1.266-0.977-2.428-1.92-3.425-2.725c-2.003-1.597-3.309-2.71-3.309-2.709l0.215-0.338c0,0,1.562,0.709,3.858,1.845
					c1.152,0.561,2.5,1.211,3.921,1.943c1.434,0.712,2.931,1.523,4.439,2.317c1.496,0.813,3.112,1.437,4.47,2.268
					c1.344,0.854,2.483,1.832,3.417,2.737c0.925,0.92,1.655,1.75,2.122,2.401c0.476,0.638,0.708,1.063,0.708,1.063L143.893,144.169z
					"/>
			</g>
			<g>
				<path fill="#4F442F" d="M143.987,143.851c0,0,2.571-0.904,6.484-1.63c0.977-0.19,2.038-0.37,3.163-0.533
					c1.123-0.182,2.313-0.314,3.545-0.427c1.234-0.097,2.514-0.149,3.816-0.181c1.301-0.047,2.622-0.096,3.943-0.144
					c5.281-0.234,10.56-0.513,14.526-0.621c3.965-0.146,6.61-0.201,6.61-0.201l0.027,0.299c0,0-2.615,0.412-6.543,0.966
					c-3.924,0.592-9.169,1.248-14.409,1.948c-1.309,0.185-2.618,0.371-3.907,0.553c-1.287,0.198-2.556,0.372-3.788,0.494
					c-1.233,0.106-2.428,0.187-3.565,0.205c-1.136,0.038-2.212,0.048-3.207,0.033c-3.979-0.024-6.669-0.462-6.669-0.462
					L143.987,143.851z"/>
			</g>
			<g>
				<path fill="#4F442F" d="M143.874,143.918c0,0,0.75-2.402,2.406-5.663c0.406-0.82,0.869-1.694,1.382-2.603
					c0.496-0.92,1.07-1.857,1.684-2.814c0.628-0.948,1.316-1.902,2.033-2.859c0.704-0.966,1.42-1.947,2.136-2.929
					c2.827-3.947,5.616-7.919,7.793-10.844c2.146-2.944,3.611-4.885,3.611-4.885l0.252,0.163c0,0-1.165,2.134-2.966,5.301
					c-1.769,3.188-4.24,7.365-6.675,11.566c-0.6,1.056-1.199,2.112-1.79,3.151c-0.577,1.048-1.163,2.068-1.769,3.03
					c-0.619,0.954-1.237,1.862-1.872,2.693c-0.617,0.841-1.224,1.623-1.803,2.331c-2.29,2.852-4.171,4.523-4.171,4.524
					L143.874,143.918z"/>
			</g>
		</g>
	</g>
</g>
<g id="Ocean">
	<g>
		<path fill="#A68F63" stroke="#262312" stroke-width="4" stroke-linejoin="round" stroke-miterlimit="10" d="M202.73,200.16
			c-15.851,13.41-36.351,21.49-58.73,21.49c-32.19,0-60.48-16.72-76.66-41.94c32.71-16.27,37.96,49.69,76.66,10.99
			C175.13,159.57,185.76,190.17,202.73,200.16z"/>
		<path fill="#A68F63" stroke="#262312" stroke-width="4" stroke-linejoin="round" stroke-miterlimit="10" d="M235,130.651
			c-43.75,43.75-44.75-46.25-91,0c-43.75,43.75-44.75-46.25-91,0c0-0.69,0.01-1.37,0.03-2.05C55.74,39.821,235,50.951,235,130.651z"
			/>
		<path fill="#A68F63" stroke="#262312" stroke-width="4" stroke-linejoin="round" stroke-miterlimit="10" d="M232.14,153.391
			c-2.649,10.29-7.04,19.859-12.859,28.399c-29.141,10.65-35.33-51.059-75.28-11.109c-41.57,41.569-44.54-37.6-84.4-5.94
			c-2.05-5.07-3.66-10.37-4.77-15.85c44.45-42.09,46,44.95,89.17,1.779C189.22,105.451,191.18,190.48,232.14,153.391z"/>
	</g>
</g>
</svg>
