<?xml version="1.0" encoding="utf-8"?>
<!-- Generator: Adobe Illustrator 16.0.3, SVG Export Plug-In . SVG Version: 6.00 Build 0)  -->
<!DOCTYPE svg PUBLIC "-//W3C//DTD SVG 1.1//EN" "http://www.w3.org/Graphics/SVG/1.1/DTD/svg11.dtd">
<svg version="1.1" xmlns="http://www.w3.org/2000/svg" xmlns:xlink="http://www.w3.org/1999/xlink" x="0px" y="0px" width="288px"
	 height="288px" viewBox="0 0 288 288" enable-background="new 0 0 288 288" xml:space="preserve">
<g id="Layer_1" display="none">
	<circle display="inline" fill="#FFFFFF" stroke="#231F20" stroke-miterlimit="10" cx="144" cy="144" r="75.803"/>
	<circle fill="#FFFFFF" stroke="#231F20" stroke-miterlimit="10" cx="219.803" cy="144" r="75.803"/>
	<line fill="none" stroke="#231F20" stroke-miterlimit="10" x1="181.902" y1="78.34" x2="181.902" y2="209.659"/>
	<line fill="none" stroke="#231F20" stroke-miterlimit="10" x1="106.099" y1="78.34" x2="106.099" y2="209.659"/>
	<line display="inline" fill="none" stroke="#231F20" stroke-miterlimit="10" x1="209.66" y1="181.901" x2="78.342" y2="181.901"/>
	<line display="inline" fill="none" stroke="#231F20" stroke-miterlimit="10" x1="209.66" y1="106.098" x2="78.342" y2="106.098"/>
	<circle display="inline" fill="#FFFFFF" stroke="#231F20" stroke-miterlimit="10" cx="181.902" cy="106.098" r="27.758"/>
	<circle display="inline" fill="#FFFFFF" stroke="#231F20" stroke-miterlimit="10" cx="106.099" cy="106.098" r="27.757"/>
	<circle display="inline" fill="#FFFFFF" stroke="#231F20" stroke-miterlimit="10" cx="181.902" cy="102.962" r="27.758"/>
	<circle display="inline" fill="#FFFFFF" stroke="#231F20" stroke-miterlimit="10" cx="106.099" cy="102.962" r="27.757"/>
</g>
<g id="Layer_1_copy">
	<g display="none">
		<circle display="inline" fill="#FFFFFF" stroke="#231F20" stroke-miterlimit="10" cx="219.803" cy="144" r="75.803"/>
		<line display="inline" fill="none" stroke="#231F20" stroke-miterlimit="10" x1="181.902" y1="78.34" x2="181.902" y2="209.659"/>
		<line display="inline" fill="none" stroke="#231F20" stroke-miterlimit="10" x1="106.099" y1="78.34" x2="106.099" y2="209.659"/>
	</g>
	<g>
		<path fill="#2E3192" d="M84.72,102.6C98.173,83.399,120.355,71.7,144,71.7s45.827,11.699,59.28,30.9H84.72z"/>
		<path fill="#231F20" d="M144,75.2c20.143,0,39.169,8.921,52.12,23.9H91.879C104.831,84.121,123.858,75.2,144,75.2 M144,68.2
			c-28.05,0-52.55,15.24-65.66,37.9h131.32C196.55,83.44,172.05,68.2,144,68.2L144,68.2z"/>
	</g>
	<g>
		<path fill="#3C2415" d="M78.629,181.4C72.133,170.068,68.7,157.142,68.7,144c0-13.142,3.433-26.068,9.929-37.4h130.742
			c6.496,11.331,9.929,24.257,9.929,37.4c0,13.143-3.433,26.069-9.929,37.4H78.629z"/>
		<path fill="#231F20" d="M209.081,107.1c6.36,11.195,9.719,23.94,9.719,36.9c0,12.959-3.358,25.705-9.719,36.9H78.919
			C72.559,169.704,69.2,156.958,69.2,144c0-12.958,3.358-25.704,9.719-36.9H209.081 M209.66,106.1H78.34
			C71.89,117.25,68.2,130.19,68.2,144c0,13.81,3.69,26.75,10.14,37.9h131.32c6.45-11.15,10.14-24.091,10.14-37.9
			C219.8,130.19,216.11,117.25,209.66,106.1L209.66,106.1z"/>
	</g>
	<g>
		<path fill="#2E3192" d="M144,216.3c-23.644,0-45.827-11.698-59.28-30.899h118.559C189.827,204.602,167.645,216.3,144,216.3z"/>
		<path fill="#231F20" d="M196.12,188.9C183.169,203.879,164.142,212.8,144,212.8c-20.142,0-39.168-8.921-52.12-23.899H196.12
			 M209.66,181.9H78.34C91.45,204.56,115.95,219.8,144,219.8S196.55,204.56,209.66,181.9L209.66,181.9z"/>
	</g>
	<g>
		<circle fill="#EC008C" stroke="#F7941E" stroke-miterlimit="10" cx="181.902" cy="106.098" r="27.758"/>
		<circle fill="#EC008C" stroke="#F7941E" stroke-miterlimit="10" cx="106.099" cy="106.098" r="27.757"/>
	</g>
	<g>
		<g>
			<path fill="#FFFFFF" d="M181.902,121.72c-10.343,0-18.758-8.415-18.758-18.758s8.415-18.758,18.758-18.758
				s18.758,8.415,18.758,18.758S192.245,121.72,181.902,121.72z"/>
			<path fill="#231F20" d="M181.902,93.204c5.381,0,9.758,4.377,9.758,9.758s-4.377,9.758-9.758,9.758s-9.758-4.377-9.758-9.758
				S176.521,93.204,181.902,93.204 M181.902,75.204c-15.33,0-27.758,12.428-27.758,27.758s12.428,27.758,27.758,27.758
				s27.758-12.428,27.758-27.758S197.232,75.204,181.902,75.204L181.902,75.204z"/>
		</g>
		<g>
			<path fill="#FFFFFF" d="M106.099,121.719c-10.343,0-18.757-8.415-18.757-18.757s8.415-18.757,18.757-18.757
				s18.757,8.415,18.757,18.757S116.442,121.719,106.099,121.719z"/>
			<path fill="#231F20" d="M106.099,93.205c5.38,0,9.757,4.377,9.757,9.757s-4.377,9.757-9.757,9.757s-9.757-4.377-9.757-9.757
				S100.719,93.205,106.099,93.205 M106.099,75.205c-15.33,0-27.757,12.427-27.757,27.757s12.427,27.757,27.757,27.757
				s27.757-12.427,27.757-27.757S121.429,75.205,106.099,75.205L106.099,75.205z"/>
		</g>
	</g>
</g>
</svg>
