<?xml version="1.0" encoding="utf-8"?>
<!-- Generator: Adobe Illustrator 16.0.3, SVG Export Plug-In . SVG Version: 6.00 Build 0)  -->
<!DOCTYPE svg PUBLIC "-//W3C//DTD SVG 1.1//EN" "http://www.w3.org/Graphics/SVG/1.1/DTD/svg11.dtd">
<svg version="1.1" id="Layer_1" xmlns="http://www.w3.org/2000/svg" xmlns:xlink="http://www.w3.org/1999/xlink" x="0px" y="0px"
	 width="288px" height="288px" viewBox="0 0 288 288" enable-background="new 0 0 288 288" xml:space="preserve">
<path display="none" fill-rule="evenodd" clip-rule="evenodd" fill="#FFFFFF" d="M172.627,211.364c-4.089,0-8.178,0-12.267,0
	c0.34-2.381,1.788-3.828,4.064-4.583c-1.264-1.01-1.368-1.04-2.497-0.489c-2.111,1.029-3.406,2.616-3.395,5.072
	c-2.609,0-5.22,0-7.829,0c-2.005-1.432-4.006-2.869-6.017-4.293c-1.05-0.743-2.118-1.461-3.223-2.221
	c1.132-1.311,2.149-2.489,3.167-3.667c-0.13-0.119-0.259-0.238-0.389-0.357c-2.845,2.714-5.691,5.428-8.592,8.195
	c2.323-0.005,3.316-2.056,5-3.186c2.829,1.843,5.658,3.686,8.487,5.528c-46.012,0-92.025,0-138.049,0c0-44.787,0-89.574,0-134.384
	c89.041,0,178.093,0,267.192,0c0,44.78,0,89.582,0,134.384c-33.721,0-67.469,0-101.217,0c-0.179-0.17-0.332-0.385-0.54-0.503
	c-8.169-4.607-16.349-9.194-24.507-13.82c-0.871-0.494-1.445-0.189-2.176,0.425c0.452,0.285,0.842,0.541,1.242,0.781
	c6.812,4.092,13.625,8.179,20.433,12.277C171.911,210.763,172.258,211.083,172.627,211.364z M211.451,140.591
	c-1.142-0.619-2.283-1.238-3.425-1.856c-0.034,0.064-0.068,0.129-0.104,0.193c0.914,0.773,1.827,1.545,2.741,2.318
	c-0.275-0.115-0.584-0.183-0.822-0.351c-2.04-1.441-4.349-2.172-6.786-2.491c-2.561-0.335-5.125-0.383-7.57,0.659
	c-1.205,0.514-2.176,1.26-2.213,2.815c1.438,0.14,2.822,0.275,4.205,0.41c-1.136,0.162-2.265,0.18-3.381,0.311
	c-0.439,0.052-1.092,0.248-1.233,0.564c-0.868,1.931-1.618,3.916-2.406,5.882c0.861-0.092,1.347-0.404,1.878-0.569
	c1.795-0.555,3.602-1.167,5.107,0.678c1.284,1.573,2.787,2.994,3.898,4.677c1.868,2.825,2.791,6.063,3.377,9.38
	c1.392,7.877,0.587,15.675-0.918,23.438c-0.426,2.198-0.942,4.378-1.438,6.657c2.717,0.378,5.299,0.57,7.863-0.166
	c1.355-0.389,2.247-1.149,2.464-2.677c0.469-3.31,1.149-6.592,1.553-9.909c0.796-6.54,1.028-13.091-0.389-19.589
	c-0.993-4.553-2.761-8.697-6.595-11.657c-0.293-0.227-0.573-0.469-0.86-0.703c0.03-0.066,0.061-0.131,0.09-0.196
	c2.085,0.45,4.17,0.9,6.26,1.353c-0.644,0-1.287,0-1.931,0c-0.008,0.122-0.016,0.243-0.023,0.364
	c0.466,0.109,0.932,0.218,1.313,0.308c-0.16,0.041-0.416,0.107-0.666,0.172c0.547,0.779,1.03,1.495,1.548,2.186
	c0.134,0.177,0.414,0.419,0.563,0.382c1.466-0.371,2.919-0.794,4.375-1.202c-0.022-0.159-0.045-0.318-0.067-0.478
	c-0.628-0.184-1.255-0.368-1.883-0.552c0.015-0.055,0.03-0.108,0.045-0.163c2.592,0.381,5.184,0.761,8.081,1.187
	c-3.374,0.666-6.424,1.268-9.745,1.923c8.199,3.715,16.303,3.915,24.543,2.221c0.035-0.119,0.069-0.237,0.104-0.355
	c-0.683-0.384-1.365-0.767-2.048-1.149c13.759,2.947,27.104,7.02,39.62,13.563c-2.549-1.613-5.17-3.044-7.891-4.252
	c-15.496-6.88-31.837-10.654-48.536-13.09c-2.482-0.362-4.965-0.728-7.447-1.091c0.483,0,0.967,0,1.45,0
	c-4.79-3.388-9.832-6.01-15.792-7.167c0.384-0.047,0.514-0.089,0.635-0.073c0.517,0.068,1.033,0.137,1.544,0.235
	c5.413,1.041,10.492,2.786,14.623,6.676c0.517,0.486,1.434,0.547,2.165,0.805c0.127-0.166,0.255-0.332,0.383-0.497
	c-1.844-2.329-3.688-4.658-5.531-6.987c0.696,0.575,1.516,1.053,2.065,1.745c1.319,1.656,2.507,3.418,3.762,5.126
	c0.223,0.303,0.515,0.555,0.774,0.83c0.166-0.133,0.331-0.267,0.497-0.399c-1.083-1.696-2.012-3.521-3.291-5.053
	c-1.352-1.618-3.037-2.956-4.571-4.413c0.196-0.114,0.543-0.202,0.567-0.345c0.354-2.067,0.786-4.133,0.928-6.218
	c0.058-0.858-0.531-1.76-0.826-2.642c-0.141,0.038-0.28,0.075-0.42,0.112C212.42,134.54,212.831,137.597,211.451,140.591z
	 M148.533,136.031c0.263-0.245,0.526-0.491,0.966-0.899c-0.656-0.208-1.247-0.594-1.7-0.47c-0.307,0.083-0.421,0.88-0.67,1.476
	c0.638-0.063,1.037-0.103,1.437-0.142c-0.585,0.247-1.17,0.495-1.757,0.743c0.123-0.809,0.247-1.617,0.371-2.426
	c-0.104-0.037-0.207-0.073-0.311-0.11c-0.229,0.551-0.438,1.112-0.691,1.651c-0.367,0.778,0.049,0.886,0.678,0.841
	c-0.308,0.272-0.616,0.544-0.989,0.873c2.146,1.682,3.575-0.397,5.338-0.803c-0.173,1.199,0.378,1.697,1.354,1.432
	c0.465,1.455,0.886,2.768,1.306,4.082c0.082-0.029,0.164-0.058,0.246-0.087c-0.259-1.357-0.518-2.714-0.75-3.936
	c0.857-0.303,1.39-0.491,1.791-0.633c0.379,0.851,0.755,1.692,1.131,2.534c0.099-0.045,0.198-0.091,0.298-0.136
	c-0.096-0.326-0.188-0.653-0.29-0.978c-0.116-0.373-0.263-0.739-0.355-1.118c-0.197-0.797,0.521-1.434,1.246-1.079
	c0.27-0.527,0.539-1.054,0.828-1.62c0.285,0.123,0.574,0.249,0.929,0.402c-0.05-0.44-0.087-0.769-0.097-0.859
	c0.547-0.178,1.212-0.192,1.374-0.485c0.483-0.871,0.768-1.851,1.146-2.828c-1.239,0.581-2.72,1.652-3.949-0.24
	c-0.97,1.506-1.894-0.086-2.706,0.205c0-0.819,0.225-1.617-0.049-2.169c-0.504-1.021-0.022-1.518,0.648-2.062
	c0.266-0.215,0.515-0.451,0.839-0.738c-1.442-2.398-3.41-2.195-5.568-1.249c0.109-0.239,0.198-0.433,0.348-0.76
	c-0.435,0.178-0.761,0.313-1.319,0.542c0.588-0.889,1.035-1.565,1.54-2.329c-2.019-0.143-2.055-0.205-1.291-1.916
	c0.194-0.437,0.394-0.872,0.611-1.297c1.124-2.195,2.255-4.387,3.542-6.889c-2.16,0.275-2.92-1.19-3.694-2.636
	c-0.111,0.07-0.223,0.14-0.334,0.21c0.18,0.655,0.36,1.311,0.554,2.013c-0.345-0.155-0.635-0.285-1.224-0.549
	c0.41,0.612,0.638,0.952,0.963,1.439c-0.664,0.426-1.326,0.85-2.002,1.283c0.169,0.199,0.456,0.538,0.766,0.904
	c-0.563,0.185-1.042,0.343-1.268,0.417c0.361,0.846,0.795,1.608,0.986,2.427c0.08,0.345-0.254,0.987-0.58,1.168
	c-0.309,0.171-0.989,0.063-1.266-0.187c-0.563-0.508-1.205-1.141-1.356-1.824c-0.122-0.552,0.427-1.253,0.655-1.829
	c-1.559,0.421-1.563,0.657,0.065,5.242c-0.367,0-0.704,0-1.289,0c0.881,0.907,1.595,1.642,2.3,2.368
	c-1.204,1.711-2.617,3.525-3.813,5.473c-1.241,2.02-0.866,2.565,1.455,2.562c0.09,0,0.181,0.096,0.316,0.172
	c-0.42,0.352-0.785,0.657-1.149,0.963c0.045,0.081,0.089,0.161,0.134,0.241c0.578-0.154,1.156-0.308,1.827-0.487
	c-0.793,1.299-1.894,1.531-3.202,1.27c1.557,1.161,2.804,0.245,3.961-0.642c1.029-0.789,2.017-0.691,3.039-0.17
	c1.078,0.549,1.8,1.382,1.826,2.492c-0.868-0.666-1.738-1.436-2.707-2.049c-0.981-0.623-1.727-0.37-1.959,0.911
	c1.11,0.347,2.431,0.336,3.054,1.796C149.488,135.718,149.009,135.876,148.533,136.031z M118.002,136.112
	c-0.217,0.309-0.551,0.59-0.632,0.931c-0.47,1.979-1.059,3.955-1.248,5.966c-0.125,1.329,0.287,2.729,0.583,4.07
	c0.193,0.877,0.84,1.115,1.764,0.66c-2.024-3.975-0.964-7.85,0.473-11.833c-0.429,0.101-0.702,0.166-0.977,0.23
	c0.222-0.313,0.499-0.92,0.654-0.891c0.677,0.131,1.317,0.446,2.081,0.736c1.97-1.367,4.154-2.884,6.338-4.4
	c-1.614,2.139-2.789,4.402-2.667,7.147c0.118,2.675,1.07,5.052,2.575,7.267c0.726-0.654,0.726-0.654,0.284-1.637
	c-2.803-6.239-1.235-11.534,4.505-15.225c0.196-0.125,0.383-0.264,0.765-0.527c-1.846-0.218-3.085,0.543-4.297,1.394
	c-2.736,1.92-5.358,4.102-9.008,3.938c-0.123-0.005-0.259,0.05-0.371,0.111c-1.969,1.069-4.05,0.608-6.117,0.484
	c-1.244-0.075-2.554-0.267-3.729,0.024c-1.71,0.423-3.449,1.025-4.954,1.922c-3.426,2.044-6.986,3.655-10.902,4.468
	c-0.559,0.116-1.072,0.453-1.649,0.706c-0.908-1.068-1.886-1.35-2.604-0.459c-0.891,1.104-2.025,1.37-3.308,1.533
	c-1.335,0.169-2.657,0.444-3.98,0.699c-2.208,0.425-4.366,0.738-6.059-1.313c-0.278-0.336-0.808-0.566-1.256-0.642
	c-3.001-0.508-4.959-2.336-6.364-4.897c-0.456-0.832-1.106-1.227-2.098-1.27c-2.632-0.114-4.96,0.276-5.995,3.14
	c-4.462-2.712-8.835-5.311-13.145-8.01c-2.835-1.776-5.606-3.66-8.343-5.585c-0.623-0.438-1.191-1.186-1.419-1.907
	c-0.489-1.547-1.299-2.568-2.935-2.977c-1.161-0.29-1.312-0.846-0.6-1.811c0.611-0.828,1.322-1.581,2.159-2.567
	c-6.081-1.133-11.917-2.402-17.948-1.466c2.802,0.372,5.639,0.314,8.454,0.531s5.609,0.707,8.413,1.076
	c0.011,0.137,0.023,0.274,0.035,0.411c-0.653,0.626-1.374,1.196-1.944,1.891c-0.793,0.966-0.63,1.603,0.461,2.192
	c0.726,0.392,1.509,0.68,2.221,1.094c1.219,0.71,1.428,1.412,0.85,2.943c7.327,4.679,14.689,9.382,22.052,14.083
	c0.762,0.486,1.907,0.64,1.582,2.076c0.264-0.453,0.426-0.809,0.511-1.182c0.842-3.729,5.019-4.154,7.156-2
	c0.885,0.892,1.602,1.968,2.554,2.771c0.996,0.841,2.104,1.708,3.313,2.088c0.958,0.301,1.649,0.691,2.153,1.471
	c0.767,1.184,1.485,2.4,2.307,3.737c0.205-0.515,0.353-0.886,0.521-1.306c0.821,1.833,1.602,3.574,2.455,5.479
	c-4.458-2.705-8.792-5.335-13.112-7.957c0.266-0.645,0.498-1.208,0.851-2.066c-0.802,0.849-1.356,1.436-1.858,1.967
	c17.606,11.16,35.231,22.332,52.818,33.479c-0.783,0.599-1.415,1.256-2.184,1.635c-2.027,0.997-4.1,1.904-6.187,2.771
	c-0.38,0.157-1.014,0.106-1.358-0.115c-12.08-7.744-24.138-15.521-36.2-23.291c-2.041-1.314-4.084-2.626-6.133-3.943
	c0.057-0.568,0.118-1.181,0.179-1.793c-0.073-0.011-0.146-0.021-0.219-0.031c-0.353,1.16-0.706,2.321-1.059,3.482
	c0.044,0.02,0.088,0.039,0.132,0.059c0.255-0.388,0.51-0.775,0.814-1.239c14.14,9.144,28.239,18.26,42.59,27.539
	c-1.271,0.464-2.203,0.812-3.14,1.143c-2.098,0.743-2.684,1.976-2.003,4.026c0.477,1.435,0.808,2.918,1.281,4.354
	c0.261,0.792,0.681,1.531,1.03,2.294c0.131-0.062,0.262-0.124,0.393-0.186c-0.711-2.032-1.446-4.056-2.126-6.098
	c-0.499-1.497,0.171-3.111,1.613-3.767c2.21-1.006,4.461-1.919,6.686-2.893c1.549-0.679,3.236-1.177,4.587-2.14
	c2.138-1.521,4.509-1.368,7.093-1.796c-0.377,0.497-0.549,0.724-0.721,0.949c0.048,0.058,0.097,0.114,0.146,0.172
	c0.658-0.292,1.316-0.584,1.934-0.857c0.887,1.334,1.656,2.708,2.627,3.919c4.9,6.104,9.852,12.164,14.788,18.238
	c0.136,0.168,0.266,0.395,0.448,0.459c0.199,0.071,0.492,0.052,0.671-0.053c0.101-0.059,0.129-0.406,0.056-0.56
	c-0.129-0.267-0.367-0.479-0.55-0.723c-5.539-7.367-11.076-14.735-16.675-22.186c0.685-0.423,1.289-0.753,1.847-1.147
	c1.066-0.755,1.929-0.621,2.837,0.345c1.817,1.932,3.717,3.785,5.587,5.666c0.205,0.205,0.445,0.375,0.669,0.562
	c0.115-0.128,0.231-0.257,0.347-0.385c-2.276-2.308-4.505-4.666-6.871-6.879c-0.44-0.411-1.502-0.479-2.154-0.287
	c-2.29,0.674-4.512,1.575-6.793,2.283c-0.535,0.166-1.318,0.108-1.789-0.175c-12.808-7.725-25.593-15.485-38.359-23.277
	c-0.43-0.262-0.711-0.873-0.915-1.38c-0.66-1.646-1.162-3.358-1.898-4.966c-0.599-1.308-0.534-1.453,0.9-1.806
	c1.181-0.29,2.287-0.877,3.434-1.312c0.31-0.117,0.791-0.338,0.95-0.209c1.214,0.982,2.298,0.344,3.335-0.214
	c0.254,0.482,0.396,0.969,0.703,1.304c3.559,3.869,4.761,8.498,4.379,13.616c-0.086,1.155,0.358,1.659,1.442,1.611
	c2.344-0.104,4.686-0.255,7.028-0.387c0.003-0.084,0.006-0.168,0.009-0.253c-2.472,0-4.944,0-7.274,0
	c1.562-6.113-1.339-11.156-3.846-16.17c0.618-0.124,1.264-0.134,1.804-0.379c3.834-1.741,7.707-3.412,11.446-5.339
	c3.554-1.831,7.085-2.455,10.917-1.044C116.325,136.308,117.207,136.1,118.002,136.112z M168.385,90.037
	c0.058,0.059,0.115,0.118,0.174,0.177c-1.617,2.197-3.233,4.394-4.786,6.504c0.117,0.073,0.45,0.279,0.798,0.495
	c0.71-0.53,1.435-1.07,2.472-1.845c-0.355,1.167-0.605,1.985-0.887,2.908c0.961-0.684,1.723-1.348,2.59-1.811
	c1.079-0.576,1.938-0.241,2.504,0.831c0.605,1.145,0.669,2.328,0.11,3.513c-0.208,0.441-0.46,0.86-0.772,1.439
	c0.719-0.229,1.24-0.444,1.784-0.557c1.527-0.318,3.054-0.748,4.6-0.851c2.269-0.151,4.434,0.331,5.509,2.643
	c1.154,2.479,1.145,4.945-0.532,7.289c-0.456,0.637-0.809,1.425-0.953,2.191c-0.313,1.667-0.463,3.366-0.689,5.124
	c1.404,0.746,1.533,0.944,0.527,2.434c-0.967,1.432-2.106,2.754-3.241,4.062c-0.681,0.785-1.588,0.901-2.472,0.307
	c-0.797-0.535-1.53-0.819-2.16,0.216c-0.743-0.81-1.377-1.502-1.822-1.987c-0.554,0.48-1.08,0.784-1.391,1.237
	c-0.607,0.886-1.094,1.855-1.557,2.662c-0.063-0.172-0.221-0.601-0.479-1.305c-0.067,0.936-0.112,1.556-0.171,2.355
	c-0.383-0.344-0.622-0.523-0.818-0.743c-0.806-0.898-1.466-0.884-2.123,0.2c-0.58,0.955-1.273,1.841-1.987,2.858
	c1.228,0.188,2.134,0.63,2.201,1.838c0.053,0.956-0.076,1.921-0.124,2.882c0.07,0.014,0.14,0.027,0.211,0.041
	c0.257-1.387,0.514-2.773,0.821-4.431c0.967,2.591,1.852,4.938,0.804,7.66c0.463-0.2,0.764-0.33,1.324-0.572
	c-0.416,1.637-0.777,3.058-1.139,4.479c0.124,0.059,0.249,0.119,0.373,0.178c0.683-1.321,1.72-2.583,1.954-3.979
	c0.268-1.597,1.033-2.735,2.001-3.94c0.068,0.438,0.13,0.833,0.219,1.407c1.27-1.376,1.068-2.884,1.146-4.402
	c0.974,1.908,1.996,3.798,2.547,5.817c0.548,2.008,0.623,4.145,0.904,6.225c0.072,0.017,0.145,0.034,0.217,0.051
	c0.144-2.657,0.288-5.313,0.432-7.953c2.422,2.992,3.537,3.72,6.133,3.95c-0.918-0.746-1.777-1.444-2.828-2.298
	c2.846,0.555,3.464,0.215,3.905-1.942c-2.224,1.875-3.282,1.764-5.057-0.531c0.209-0.568,0.419-1.137,0.617-1.676
	c1.012,0.696,1.986,1.367,2.961,2.037c0.063-0.086,0.128-0.172,0.192-0.258c-0.935-0.83-1.869-1.659-2.804-2.488
	c0.047-0.061,0.094-0.121,0.141-0.181c0.294,0.121,0.587,0.24,1.052,0.431c-0.337-0.754-0.581-1.301-0.918-2.055
	c0.807,0.181,1.433,0.322,2.06,0.463c0.024-0.063,0.048-0.125,0.072-0.188c-0.424-0.229-0.848-0.459-1.332-0.722
	c0.972-1.215,2.087-1.219,3.416-0.391c-0.223-1.064-0.345-1.926-0.594-2.749c-0.235-0.776-0.167-1.502,0.597-1.746
	c0.569-0.182,1.308-0.036,1.911,0.155c0.424,0.134,0.747,0.588,1.115,0.899c0.102-0.072,0.203-0.145,0.306-0.218
	c-0.634-1.163-1.267-2.326-1.904-3.498c2.497,0.418,3.608-0.111,3.914-1.845c-2.019,1.271-2.647,1.276-3.967-0.082
	c0.523-0.354,1.021-0.692,1.579-1.07c-3.48-1.032-3.918-3.583-2.695-4.484c0.134,0.689,0.276,1.425,0.419,2.161
	c0.11-0.022,0.22-0.045,0.33-0.067c0-0.67,0-1.34,0-2.136c0.289,0.397,0.507,0.696,0.91,1.25c-0.648-3.011-0.277-3.743,2.432-4.634
	c1.684-0.554,3.452-0.848,5.153-1.356c0.933-0.279,1.806-0.761,2.705-1.151c-0.049-0.107-0.099-0.214-0.147-0.322
	c-0.625,0.262-1.231,0.631-1.883,0.746c-0.382,0.067-0.882-0.208-1.226-0.467c-0.09-0.067,0.127-0.703,0.336-0.977
	c0.42-0.55,1.051-0.965,1.374-1.557c0.359-0.659,0.473-1.452,0.693-2.186c-0.93,0.835-1.449,1.831-2.228,2.547
	c-0.43,0.396-1.409,0.595-1.92,0.373c-0.385-0.167-0.676-1.196-0.563-1.75c0.438-2.131,1.49-3.979,3.104-5.468
	c2.139-1.971,3.692-1.667,4.983,0.951c0.076,0.154,0.174,0.298,0.398,0.681c-0.06-2.267-1.252-3.185-3.151-3.419
	c0.204-0.296,0.259-0.425,0.354-0.505c3.792-3.17,5.457-7.586,7.058-12.039c0.453-1.259,0.371-1.923-0.272-2.64
	c-0.31,3.375-1.23,5.287-3.211,6.632c-0.363-0.595-0.727-1.189-1.146-1.875c-1.293,4.69-4.367,6.579-9.111,5.875
	c0.264-2.926,2.181-4.92,4.045-6.963c0.611-0.67,1.092-1.461,1.604-2.217c0.265-0.392,0.466-0.827,0.696-1.242
	c-0.129-0.099-0.259-0.198-0.388-0.297c-0.423,0.544-0.847,1.088-1.201,1.543c0.307-1.218,0.618-2.461,0.931-3.705
	c-0.246-0.159-0.491-0.317-0.736-0.476c-0.427,0.704-0.854,1.407-1.28,2.111c-0.101-0.101-0.2-0.203-0.3-0.304
	c0-0.578,0-1.155,0-2.168c-2.521,4.111-5.138,7.533-9.845,8.165c0.124-1.322,0.233-2.482,0.37-3.929
	c-0.634,0.77-1.017,1.234-1.399,1.698c-0.113-0.042-0.227-0.083-0.339-0.125c-0.089-1.565-0.177-3.13-0.271-4.801
	c-0.401,0.513-0.666,1.218-1.104,1.35c-2.157,0.646-2.996,2.513-4.124,4.136c-0.207,0.297-0.545,0.504-0.822,0.753
	c-0.063-0.055-0.126-0.11-0.188-0.166c0.213-0.821,0.427-1.643,0.611-2.352c-1.334,1.55-2.676,3.11-4.069,4.73
	c0.123-1.159,0.232-2.181,0.341-3.204c-0.094-0.006-0.188-0.012-0.281-0.018c-0.471,1.202-0.942,2.403-1.413,3.605
	c-0.083-0.034-0.165-0.069-0.248-0.103c-0.031-0.485-0.063-0.971-0.117-1.816c-0.649,1.505-1.146,2.657-1.643,3.81
	c-0.07-0.031-0.141-0.062-0.211-0.093C168.385,91.202,168.385,90.62,168.385,90.037z M248.909,176.209
	c-3.628-4.222-13.173-11.782-17.898-14.174c-1.079-0.547-2.219-1.002-3.375-1.356c-0.772-0.237-1.655-0.42-2.43-0.286
	c-2.649,0.456-5.271,1.068-7.905,1.61c-0.883,0.182-1.092,0.593-0.995,1.551c0.462,4.576,0.992,9.161,1.102,13.752
	c0.073,3.036-0.525,6.088-0.829,9.193C227.214,183.113,237.986,179.685,248.909,176.209z M200.296,167.734
	c-3.816-3.538-8.128-5.687-13.2-6.227c-5.353-0.571-10.507,0.33-15.506,1.858c1.643,6.936,3.242,13.688,4.912,20.735
	c3.098,0.618,6.565,1.309,9.991,1.991C188.979,178.226,194.604,173.019,200.296,167.734z M157.123,157.36
	c0.231,0.682,0.385,1.13,0.535,1.579c3.048,9.098,6.403,18.104,8.181,27.581c0.057,0.303,0.497,0.733,0.791,0.761
	c2.333,0.22,4.673,0.372,7.014,0.504c0.443,0.025,0.896-0.129,1.612-0.243c-1.049-5.149-1.868-10.173-3.135-15.081
	c-1.026-3.977-2.436-7.877-3.985-11.686c-0.694-1.709-2.102-3.146-3.286-4.626c-0.291-0.363-1.037-0.667-1.469-0.563
	C161.322,156.082,159.301,156.728,157.123,157.36z M158.655,165.868c-4.478,1.834-8.874,3.557-12.424,6.835
	c-0.472,0.436-0.869,0.972-1.223,1.512c-0.632,0.967-0.663,1.842,0.213,2.803c1.371,1.506,2.691,3.079,3.845,4.755
	c1.057,1.537,2.482,2.203,4.2,2.131c2.375-0.1,4.744-0.386,7.109-0.657c0.919-0.105,1.817-0.389,2.751-0.596
	C161.614,176.974,160.154,171.493,158.655,165.868z M269.537,167.2c-0.115-0.147-0.154-0.244-0.224-0.277
	c-6.601-3.228-13.271-6.293-20.473-7.956c-1.446-0.335-2.971-0.33-4.702-0.506c0.265,0.82,0.446,1.301,0.574,1.794
	c0.723,2.801,1.429,5.605,2.151,8.406c0.051,0.198,0.134,0.436,0.281,0.555c1.688,1.358,3.334,2.786,5.13,3.987
	c0.552,0.37,1.62,0.345,2.297,0.089c3.33-1.258,6.609-2.651,9.904-4.002C266.157,168.602,267.833,167.904,269.537,167.2z
	 M150.124,188.729c0.014,0.092,0.028,0.184,0.043,0.275c3.424-0.556,6.854-1.082,10.268-1.688c0.887-0.157,1.769-0.486,2.577-0.888
	c0.957-0.473,1.164-1.328,0.797-2.326c-0.387-1.053-1.101-0.574-1.823-0.479c-2.657,0.348-5.323,0.816-7.99,0.844
	c-2.775,0.028-4.989-1.32-6.806-3.528c-3.56-4.328-7.26-8.542-10.962-12.75c-1.011-1.148-2.886-0.921-4.019,0.306
	c-1.224,1.324-1.369,3.702-0.43,4.7c4.135,4.396,8.343,8.734,12.266,13.314c1.317,1.538,2.621,2.262,4.516,2.223
	C149.08,188.719,149.602,188.729,150.124,188.729z M140.978,141.567c-1.65,1.218-3.219,2.376-4.788,3.535
	c0.047,0.067,0.095,0.136,0.142,0.204c0.743-0.449,1.486-0.897,2.229-1.346c-1.964,1.876-3.849,3.808-6.535,4.595
	c-1.78,0.522-3.649,0.964-5.223,1.881c-0.873,0.509-1.815,0.691-2.654,1.172c-1.749,1.002-3.333,2.144-3.836,4.201
	c0.699-0.517,1.325-1.137,2.076-1.489c0.707-0.331,1.551-0.361,2.326-0.558c0.511-0.13,1.006-0.32,1.574-0.505
	c-0.553,7.403,0.362,18.88,1.704,20.741c-0.458-4.115-0.856-8.089,1.152-11.851c0.203-0.379-0.212-1.423-0.648-1.749
	c-1.646-1.234-1.702-1.426-0.712-3.204c0.614-1.104,1.022-2.321,1.592-3.651c-0.943-0.109-1.517-0.177-2.091-0.244
	c3.467,0.217,6.683-0.576,9.653-2.485c0.097,0.163,0.194,0.327,0.292,0.49c-0.641,0.684-1.282,1.366-1.923,2.049
	c3.217-1.182,5.354-3.792,7.998-5.995c-0.271,0.681-0.484,1.215-0.713,1.789c0.263-0.02,0.411-0.031,0.691-0.053
	c-0.618,0.793-1.129,1.447-1.64,2.101c0.752-0.261,1.356-0.669,1.859-1.176c1.819-1.833,2.7-4.116,3.061-6.63
	c0.319-2.225-1.257-3.762-3.472-3.396c-1.494,0.248-2.901-0.333-3.583-1.566c-0.309-0.557-0.472-1.194-0.729-1.867
	C138.21,138.783,138.689,139.896,140.978,141.567z M215.541,190.74c1.849-0.616,3.444-1.153,5.043-1.681
	c17.738-5.846,35.47-11.716,53.231-17.492c1.549-0.504,2.595-1.186,3.077-2.856c-0.478,0.123-0.889,0.213-1.291,0.334
	c-4.365,1.321-8.73,2.644-13.094,3.972c-15.044,4.575-30.088,9.15-45.127,13.744c-0.457,0.14-1.108,0.397-1.225,0.749
	C215.837,188.472,215.755,189.513,215.541,190.74z M158.004,163.242c-1.252-2.287-1.254-2.304-3.578-2.049
	c-2.459,0.271-4.91,0.626-7.373,0.852c-4.235,0.387-7.754,2.041-10.284,5.571c1.749,2.006,3.5,4.014,5.238,6.007
	C146.324,168.671,152.196,166.09,158.004,163.242z M169.803,157.82c0.044,0.178,0.088,0.354,0.132,0.531
	c9.74,0.163,19.456,0.075,29.087-2.957c-0.94-1.176-1.965-2.173-3.087-3.045c-0.498-0.387-1.229-0.799-1.791-0.726
	c-3.262,0.428-6.576,0.729-9.737,1.58C179.481,154.53,174.665,156.262,169.803,157.82z M201.305,171.075
	c-0.17,0.031-0.267,0.021-0.322,0.065c-0.238,0.188-0.474,0.38-0.693,0.589c-4.023,3.823-6.91,8.444-9.354,13.372
	c-0.673,1.358-0.549,1.843,0.995,1.964c2.666,0.211,5.357,0.149,8.037,0.104c0.271-0.004,0.74-0.673,0.76-1.053
	c0.255-4.854,0.444-9.712,0.646-14.569C201.378,171.394,201.329,171.238,201.305,171.075z M176.239,184.412
	c0.156,0.586,0.317,0.953,0.344,1.329c0.111,1.591,1.086,2.146,2.528,2.398c3.762,0.661,7.502,1.441,11.259,2.13
	c2.976,0.546,5.964,1.025,9.041,1.551c0.327-1.366,0.621-2.594,0.933-3.898C191.986,188.539,184.234,186.388,176.239,184.412z
	 M229.848,158.727c5.04,2.146,9.971,4.352,14.3,7.815c-0.782-2.633-1.653-5.204-2.578-7.756c-0.079-0.217-0.53-0.431-0.803-0.423
	C237.127,158.461,233.487,158.599,229.848,158.727z M27.619,126.417c-0.183,2.167,1.631,4.394,3.8,5.031
	c1.213,0.356,2.421,0.866,3.497,1.525c2.298,1.406,4.509,2.956,6.757,4.445c3.534,2.341,7.07,4.68,10.697,7.08
	c-0.532,0.73-0.978,1.422-1.504,2.047c-0.935,1.112-1.332,2.372-0.753,3.71c0.714,1.65,1.533,3.317,3.848,2.981
	c0.342-0.05,0.699,0.001,1.042-0.048c0.897-0.128,1.473,0.276,1.941,1.007c0.396,0.617,0.854,1.201,1.341,1.751
	c0.813,0.919,1.681,1.791,2.506,2.701c0.407,0.448,0.717,1,1.175,1.379c0.216,0.179,0.831,0.216,1.001,0.049
	c0.751-0.733,1.406-1.565,2.096-2.361c-0.365-0.031-0.51,0.128-0.654,0.289c-1.693,1.894-1.954,1.847-3.191-0.308
	c-0.376-0.654-0.868-1.477-1.494-1.701c-1.153-0.413-1.658-1.218-2.282-2.138c-0.45-0.661-1.342-1.116-2.13-1.422
	c-0.566-0.22-1.287-0.046-1.938-0.034c-0.875,0.016-3.215-2.191-3.189-3.031c0.003-0.12,0.09-0.243,0.156-0.354
	c1.017-1.693,1.695-3.668,3.797-4.451c0.325-0.121,0.576-0.44,0.862-0.668c-0.051-0.164-0.102-0.328-0.153-0.492
	c-0.798,0.144-1.596,0.288-2.604,0.47c-5.69-3.869-11.618-7.909-17.562-11.924c-0.712-0.481-1.499-0.866-2.28-1.232
	c-1.84-0.863-3.599-1.792-4.28-3.922C28.07,126.648,27.822,126.565,27.619,126.417z M199.351,111.114
	c-2.119-0.547-7.536-0.177-10.136,0.787c-0.879,0.326-1.749,0.799-2.473,1.389c-1.061,0.865-1.018,1.443-0.098,2.58
	c1.077-1.102,9.465-3.771,10.873-3.459c-1.381,2.981-4.776,5.184-7.953,5.171c-0.954-0.003-1.968-0.146-2.673,0.824
	C190.093,120.467,198.783,115.288,199.351,111.114z M210.745,130.983c-1.48-0.046-3.05-0.371-4.504-0.093
	c-6.053,1.158-12.066,2.521-18.105,3.751c-1.179,0.24-1.811,0.877-2.119,1.883C194.224,134.686,202.454,132.841,210.745,130.983z
	 M181.795,151.53c2.428-0.273,4.525-0.493,6.616-0.766c0.238-0.031,0.534-0.308,0.642-0.544c0.54-1.179,1.073-2.365,1.503-3.586
	c0.141-0.397,0.112-1.19-0.102-1.302c-0.37-0.193-1.063-0.174-1.413,0.063c-2.101,1.425-4.165,2.906-6.185,4.444
	C182.43,150.165,182.239,150.8,181.795,151.53z M93.84,163.717c-0.566-1.36-2.029-1.958-3.225-1.437
	c-1.1,0.479-1.495,1.959-0.871,3.269c0.819,1.72,4.128,2.798,5.815,1.895c1.496-0.802,1.571-4.053,0.06-5.016
	c-0.04,0.847-0.029,1.668-0.127,2.476c-0.213,1.764-0.672,2.089-2.395,1.803c-0.949-0.157-1.676-0.573-1.633-1.663
	c0.044-1.129,0.892-1.232,1.764-1.259C93.397,163.779,93.563,163.748,93.84,163.717z M214.576,155.316
	c-0.089,0.106-0.178,0.213-0.267,0.319c0.399,1.53,0.8,3.06,1.222,4.671c2.292-0.613,4.475-1.196,6.658-1.779
	c-0.001-0.116-0.002-0.232-0.003-0.348C219.649,157.226,217.112,156.271,214.576,155.316z M199.696,157.889
	c-1.795,0.889-3.51,1.738-5.527,2.737c2.601,0.964,4.843,1.794,7.235,2.68C200.784,161.341,200.253,159.654,199.696,157.889z
	 M129.25,149.512c0-0.922,0.024-1.734-0.007-2.545c-0.035-0.914-0.195-1.845,0.896-2.338c0.16-0.072,0.296-0.338,0.327-0.533
	c0.35-2.199,0.678-4.402,1.011-6.604c-0.158-0.041-0.315-0.083-0.473-0.124c-1.369,3.995-2.737,7.989-4.161,12.144
	C127.82,149.512,128.375,149.512,129.25,149.512z M125.098,206.866c0.091-0.13,0.183-0.261,0.274-0.392
	c-2.22-1.327-3.493-3.142-3.583-5.803c-0.051-1.487-1.149-2.563-2.527-3.043c-1.31-0.456-2.005-1.365-2.354-2.556
	c-0.326-1.107-0.439-2.277-0.648-3.42c-0.104-0.568-0.211-1.135-0.317-1.703c-0.158,0.05-0.316,0.1-0.475,0.149
	c0.39,2.876,0.21,5.957,3.163,7.882c1.603,1.045,2.479,2.498,2.909,4.417c0.278,1.241,1.146,2.39,1.913,3.464
	C123.794,206.344,124.537,206.541,125.098,206.866z M74.947,154.409c0.043,3.025,0.972,4.905,2.667,5.162
	c-1.739-2.683-2.885-5.437-1.442-8.753c-1.056,0.681-1.913,1.423-2.579,2.309c-0.2,0.266,0.076,0.957,0.266,1.396
	C73.899,154.616,74.516,154.46,74.947,154.409z M207.663,130.079c-0.956-0.432-1.649-0.541-2.017-0.945
	c-2.682-2.96-6.021-2.441-9.372-1.944c2.627,0.205,5.413-0.366,7.671,1.684c-1.851-0.11-3.701-0.22-5.068-0.301
	c2.255,0.558,4.922,1.23,7.599,1.858C206.729,130.49,207.047,130.271,207.663,130.079z M13.24,125.168
	c0.489-1.765,0.849-3.689,1.566-5.47c0.711-1.764,1.784-3.382,2.688-5.047C15.093,114.682,12.505,121.115,13.24,125.168z
	 M83.389,163.495c3.009-1.761,5.979-2.708,9.394-2.542C89.798,159.13,84.609,160.488,83.389,163.495z M97.333,172.26
	c2.77-0.664,5.56-1.334,8.235-1.976C103.573,168.881,99.138,169.906,97.333,172.26z M146.149,198.746
	c3.243-2.151,6.487-4.302,9.958-6.604C152.056,193.576,147.027,196.952,146.149,198.746z M14.143,125.936c4.049,0,8.143,0,12.236,0
	c-0.006-0.146-0.013-0.293-0.02-0.441C22.251,125.25,18.14,124.933,14.143,125.936z M147.207,141.234
	c0.141-0.599,0.532-1.362,0.331-1.584c-0.599-0.656-1.386-1.203-2.201-1.564c-0.247-0.11-0.823,0.52-1.297,0.844
	C145.154,139.741,146.017,140.369,147.207,141.234z M120.536,157.573c-2.288-1.121-8.473,0.06-9.533,1.87
	C114.162,158.355,117.164,156.993,120.536,157.573z M107.78,193.185c-0.011,0.097-0.021,0.193-0.031,0.29
	c1.148,0.481,2.263,1.096,3.456,1.399c0.872,0.222,1.9,0.226,2.765-0.014c1.327-0.367,1.6-1.256,1.072-2.592
	c-0.915,2.74-1.698,3.079-4.422,1.914c-0.478-0.204-0.943-0.442-1.432-0.615C108.731,193.405,108.25,193.31,107.78,193.185z"/>
<path fill-rule="evenodd" clip-rule="evenodd" d="M195.156,196.275c-0.445-0.123-0.89-0.291-1.344-0.363
	c-7.847-1.256-15.694-2.498-23.542-3.748c-0.461-0.073-0.918-0.162-1.443-0.26c0.448-0.844,0.866-1.34,1.859-1.206
	c9.295,1.239,18.597,2.435,27.896,3.655c0.237,0.03,0.46,0.172,0.688,0.262C197.898,195.17,196.527,195.722,195.156,196.275z"/>
<path fill-rule="evenodd" clip-rule="evenodd" d="M173.371,205.059c-3.313-0.65-6.626-1.303-9.938-1.953
	c-1.14,1.676-1.293,3.949-3.445,4.823c1.655-3.652,3.279-7.233,4.904-10.815c0.165,0.063,0.329,0.127,0.494,0.188
	c-0.503,1.475-1.007,2.947-1.565,4.585c1.308,0.292,2.567,0.56,3.819,0.854c2.396,0.569,4.79,1.154,7.185,1.73
	C174.34,204.668,173.856,204.863,173.371,205.059z"/>
<path fill-rule="evenodd" clip-rule="evenodd" d="M182.085,201.546c-0.929-2.274-0.321-4.231,1.252-5.975
	c0.842-0.933,0.948-0.943,2.499-0.479c-1.829,1.551-2.632,3.435-2.056,5.77C183.215,201.089,182.65,201.316,182.085,201.546z"/>
<path fill-rule="evenodd" clip-rule="evenodd" d="M145.854,85.335c0.219,0.54,0.437,1.08,0.654,1.621
	c0.077,0.002,0.152,0.004,0.23,0.008c0.03-1.256,0.06-2.508,0.098-4.148c0.367,0.764,0.578,1.202,0.789,1.64
	c0.091,0.002,0.18,0.003,0.268,0.004c-0.011-1.29-0.023-2.582-0.037-3.872c0.09-0.03,0.179-0.059,0.268-0.089
	c0.282,0.989,0.563,1.979,0.883,3.099c0.688-2.022,1.348-3.972,2.004-5.909c0.095,0.728,0.203,1.568,0.314,2.41
	c0.078,0.028,0.157,0.056,0.236,0.083c0.164-0.335,0.4-0.652,0.48-1.006c0.44-1.926,0.521-3.972,2.279-5.377
	c0.355-0.285,0.338-1.039,0.519-1.665c0.713,1.515,1.379,2.934,2.046,4.352c0.121-0.004,0.242-0.008,0.361-0.011
	c0.182-0.574,0.363-1.147,0.663-2.098c0.414,1.393,0.746,2.509,1.126,3.782c4.13-2.345,5.276-6.499,6.078-11.254
	c0.378,0.94,0.594,1.475,0.81,2.01c0.131,0.058,0.262,0.114,0.393,0.17c0.132-0.812,0.265-1.624,0.397-2.437
	c0.287,0.056,0.573,0.112,0.861,0.167c0.176,1.269,0.351,2.538,0.522,3.784c0.158-0.554,0.348-1.218,0.536-1.88
	c0.156,0.043,0.314,0.086,0.472,0.13c-0.06,0.472-0.083,0.95-0.183,1.412c-0.191,0.894-0.341,1.807-0.658,2.656
	c-0.964,2.592-1.996,5.159-1.146,7.971c4.662-1.121,6.809-4.022,6.253-8.856c0.645,0.479,1.204,0.896,1.764,1.311
	c1.334-1.988,1.473-4.105,0.498-7.353c0.865,0.425,1.188,1.011,1.241,2.347c0.179,4.729,0.286,9.447-2.046,13.806
	c-0.059,0.109-0.062,0.25-0.14,0.601c1.85-0.493,3.298-0.087,4.201,1.993c-0.352-0.271-0.496-0.368-0.625-0.482
	c-2.175-1.946-3.729-1.647-4.976,0.981c-0.94,1.985-1.228,4.093-0.835,6.232c0.102,0.557,0.756,1.402,1.176,1.413
	c0.556,0.014,1.39-0.536,1.641-1.065c0.454-0.954,0.563-2.072,1.113-3.194c0.07,0.763,0.262,1.542,0.174,2.286
	c-0.078,0.671-0.508,1.291-0.691,1.958c-0.092,0.332-0.055,1.003,0.053,1.031c0.416,0.112,0.983,0.182,1.313-0.025
	c0.561-0.35,0.986-0.918,1.467-1.396c0.086,0.082,0.171,0.163,0.257,0.244c-0.687,0.698-1.317,1.472-2.077,2.079
	c-1.389,1.108-2.918,2.042-4.272,3.186c-2.18,1.839-2.25,2.656-0.522,5.206c-0.581-0.362-0.895-0.557-1.312-0.818
	c0.299,0.738,0.547,1.359,0.8,1.981c-0.095,0.062-0.188,0.124-0.281,0.186c-0.407-0.629-0.815-1.258-1.198-1.848
	c-0.796,1.293,0.563,3.496,4.178,3.151c-0.376,0.559-0.712,1.057-1.065,1.582c1.732,0.767,2.313,0.527,3.71-1.406
	c0.365,1.723-0.467,2.629-2.939,3.174c1.028,0.848,2.051,1.69,3.073,2.533c-0.068,0.105-0.134,0.211-0.202,0.315
	c-0.457-0.15-0.927-0.45-1.37-0.416c-0.631,0.049-1.371,0.189-1.83,0.571c-0.618,0.511-0.41,1.209,0.1,1.842
	c0.538,0.67,0.973,1.424,1.577,2.326c-1.542-0.271-2.574,0.15-3.021,1.641c0.545,0.063,1.025,0.117,1.504,0.171
	c0,0.066,0.003,0.134,0.003,0.201c-0.634,0.104-1.267,0.208-2.082,0.34c0.595,0.575,1.023,0.99,1.619,1.563
	c-0.503-0.002-0.817-0.004-1.136-0.005c-0.021,0.073-0.043,0.146-0.064,0.22c1.178,0.419,2.354,0.838,3.531,1.259
	c-0.026,0.104-0.054,0.208-0.08,0.311c-1.157-0.257-2.311-0.516-3.509-0.781c0.019,0.573,0.036,1.18,0.055,1.786
	c2.503,1.463,3.526,1.17,4.888-1.398c0.396,2.165-0.049,2.711-2.896,3.261c1.294,0.398,2.353,0.725,3.482,1.074
	c-2.493,0.757-3.801,0.499-7.165-1.37c0.854,2.5,1.713,5.019,2.572,7.535c-0.073,0.012-0.146,0.024-0.219,0.034
	c-1.039-1.824-1.907-3.777-3.168-5.436c-1.266-1.666-2.921-3.037-4.537-4.442c0.496,1.438,1.248,2.76,0.585,4.512
	c-0.298-0.499-0.503-0.842-0.729-1.223c-0.447,1.48-0.732,2.822-0.384,4.403c0.305,1.381-0.185,2.94-0.324,4.42
	c-0.137-0.007-0.275-0.017-0.411-0.024c-0.197-1.454-0.394-2.906-0.619-4.581c-0.431,0.434-0.66,0.667-1.015,1.026
	c-0.046-2.916-1.745-4.762-3.609-6.803c0.334,1.653,0.615,3.035,0.895,4.417c-0.071,0.014-0.141,0.027-0.21,0.041
	c-0.316-0.909-0.558-1.852-0.964-2.719c-0.514-1.094-1.519-1.166-2.728-0.88c0.28-1.211,0.593-2.292,0.773-3.394
	c0.204-1.251,0.811-1.512,1.895-0.979c0.265,0.129,0.553,0.206,1.037,0.382c-0.245-0.764-0.435-1.354-0.723-2.249
	c0.503,0.558,0.81,0.896,0.932,1.032c0.128-0.923,0.218-2.003,0.448-3.051c0.118-0.536,0.493-1.016,0.827-1.667
	c0.595,0.283,1.44,0.688,2.434,1.162c0.197-1.196,0.983-1.207,1.923-1.008c1.042,0.22,1.84-0.227,2.178-1.209
	c0.563-1.638,1.125-3.291,1.487-4.979c0.376-1.758,0.181-1.894-1.399-2.061c-0.447-1.714-0.943-3.346-1.276-5.009
	c-0.152-0.766-0.12-1.628,0.065-2.389c0.678-2.801-0.235-5.093-2.232-6.96c-1.861-1.741-4.05-1.378-6.098-0.391
	c-1.395,0.674-2.65,1.643-3.947,2.508c-0.462,0.309-0.865,0.703-1.448,1.184c0.074-0.654,0.15-1.138,0.179-1.624
	c0.075-1.308-0.425-2.382-1.416-3.217c-0.926-0.783-1.847-0.772-2.632,0.166c-0.631,0.753-1.09,1.654-1.726,2.648
	c-0.084-0.961-0.157-1.813-0.265-3.028c-0.672,1.105-1.144,1.876-1.603,2.634c-0.403-0.071-0.79-0.138-0.926-0.161
	c0.652-2.537,1.33-5.179,2.007-7.822C146.007,85.401,145.931,85.369,145.854,85.335z"/>
<path fill-rule="evenodd" clip-rule="evenodd" d="M206.174,117.827c2.581,1.47,5.161,2.941,7.742,4.412
	c-0.056,0.201-0.113,0.402-0.169,0.604c-0.774,0.035-1.648,0.321-2.309,0.063c-5.285-2.064-10.649-1.784-16.059-0.725
	c-0.512,0.1-1.015,0.229-1.521,0.36c-0.118,0.03-0.224,0.118-0.562,0.306c5.96-1.156,11.619-0.609,17.326,0.741
	c-0.447,0.182-0.896,0.362-1.346,0.542l0.05,0.009c-2.104,0.362-4.204,0.724-6.307,1.086c-0.003,0.072-0.009,0.142-0.011,0.215
	c0.354,0.111,0.705,0.231,1.062,0.331c4.662,1.312,7.852,4.494,10.476,8.346c3.745,5.497,5.978,11.66,7.685,18.022
	c0.866,3.229,1.463,6.526,2.265,9.771c0.371,1.498-0.173,2.537-1.283,3.404c-2.103,1.641-4.569,2.428-7.23,3.094
	c-0.394-2.299-0.729-4.514-1.157-6.711c-1.507-7.764-3.678-15.297-7.912-22.083c-1.784-2.857-3.851-5.515-6.641-7.436
	c-1.658-1.145-3.584-1.901-5.363-2.88c-2.085-1.147-3.534,0.096-4.991,1.282c-0.43,0.352-0.763,0.822-1.527,1.23
	c-0.005-2.119-0.051-4.24,0.031-6.356c0.014-0.346,0.544-0.772,0.933-0.984c0.987-0.538,2.026-0.978,3.021-1.552
	c-1.334,0.392-2.668,0.784-4.054,1.192c-0.548-1.457,0.075-2.511,1-3.438c1.878-1.881,4.274-2.795,6.774-3.443
	c2.38-0.615,4.794-0.801,7.226-0.226c0.284,0.065,0.595,0.014,0.895,0.018C204.869,117.289,205.521,117.558,206.174,117.827z"/>
<path fill-rule="evenodd" clip-rule="evenodd" d="M252.761,135.147c-8.831,7.307-17.54,14.515-26.139,21.632
	c-0.879-2.994-1.465-6.047-2.668-8.836c-1.819-4.218-4.025-8.272-6.165-12.343c-0.447-0.853-0.408-1.312,0.344-1.81
	c2.239-1.488,4.442-3.037,6.729-4.449c0.669-0.414,1.555-0.574,2.359-0.645c1.205-0.103,2.434-0.107,3.637-0.003
	C236.137,129.144,247.817,132.587,252.761,135.147z"/>
<path fill-rule="evenodd" clip-rule="evenodd" d="M204.504,145.465c-3.303,7.027-6.572,13.961-5.936,22.188
	c-3.433,0.646-6.907,1.303-10.011,1.889c-4.184-5.913-8.193-11.576-12.312-17.395c4.066-3.287,8.51-6.049,13.687-7.521
	C194.84,143.229,199.643,143.61,204.504,145.465z"/>
<path fill-rule="evenodd" clip-rule="evenodd" d="M116.361,146.902c-0.747,0.291-1.487,0.813-2.243,0.838
	c-4.081,0.123-7.125,2.023-9.734,5.049c-2.748,3.187-5.715,6.184-8.619,9.232c-0.409,0.43-1.006,0.679-1.533,1.025
	c4.201,3.713,8.777,7.307,9.615,13.561c2.16-0.871,4.453-1.796,6.746-2.72c0.029,0.079,0.058,0.157,0.087,0.237
	c-2.124,0.998-4.239,2.014-6.374,2.986c-0.987,0.45-1.589,0.146-1.941-0.955c-1.559-4.889-4.404-8.734-9.152-10.991
	c-0.41-0.196-0.723-0.593-1.139-0.946c-0.755,0.906-1.521,1.903-3.014,1.447c-0.195-0.061-0.561,0.324-0.803,0.549
	c-0.901,0.832-1.708,1.789-2.695,2.5c-1.196,0.863-1.203,1.022-0.159,2.012c1.285,1.215,2.391,2.615,3.618,3.895
	c0.378,0.395,0.868,0.857,1.364,0.939c14.753,2.453,29.514,4.869,44.28,7.244c0.543,0.088,1.29-0.152,1.725-0.507
	c1.851-1.509,3.575-3.176,5.447-4.657c0.532-0.422,1.542-0.756,2.104-0.541c3.022,1.17,5.972,2.523,8.944,3.812
	c-0.059,0.162-0.117,0.325-0.177,0.487c-0.278-0.088-0.564-0.157-0.83-0.271c-2.439-1.046-4.894-2.054-7.301-3.166
	c-1.203-0.556-2.055-0.357-2.76,0.741c-0.371,0.574-0.808,1.106-1.285,1.755c7.98,4.817,15.87,9.58,23.763,14.341
	c0.261,0.158,0.561,0.266,0.78,0.465c0.125,0.113,0.229,0.447,0.157,0.539c-0.127,0.165-0.391,0.292-0.603,0.301
	c-0.192,0.006-0.396-0.154-0.587-0.259c-6.848-3.786-13.708-7.556-20.534-11.386c-1.354-0.76-2.581-1.746-3.902-2.651
	c-0.472,0.483-0.972,1.001-1.474,1.519c-0.065-0.037-0.132-0.072-0.198-0.106c0.075-0.272,0.149-0.547,0.313-1.149
	c-2.235,1.361-4.492,2.107-5.906,4.318c-0.894,1.397-2.271,2.49-3.454,3.699c-1.699,1.735-3.446,3.423-5.119,5.183
	c-1.092,1.146-1.109,2.895-0.088,4.097c1.395,1.639,2.833,3.242,4.252,4.861c-0.098,0.104-0.196,0.213-0.295,0.318
	c-0.608-0.578-1.275-1.106-1.813-1.744c-0.975-1.154-1.838-2.406-2.815-3.559c-1.399-1.646-1.317-3.01,0.352-4.483
	c0.745-0.657,1.48-1.327,2.484-2.233c-16.779-3.24-33.264-6.423-49.798-9.616c-0.108,0.544-0.2,0.999-0.292,1.454
	c-0.047-0.002-0.096-0.004-0.145-0.006c-0.106-1.209-0.213-2.418-0.32-3.625c0.072-0.018,0.146-0.036,0.216-0.053
	c0.172,0.59,0.344,1.182,0.504,1.73c2.394,0.455,4.778,0.907,7.164,1.363c14.094,2.696,28.184,5.399,42.283,8.064
	c0.403,0.079,1.009-0.113,1.303-0.4c1.611-1.584,3.194-3.2,4.702-4.883c0.571-0.639,0.912-1.486,1.414-2.332
	c-20.479-3.764-41.004-7.535-61.506-11.301c0.268-0.682,0.562-1.432,0.989-2.521c-0.008,0.928-0.013,1.536-0.017,2.235
	c4.987,0.814,9.989,1.633,15.136,2.475c-1.503-1.445-2.878-2.77-4.325-4.162c0.002,0.453,0.003,0.852,0.005,1.404
	c-1.261-0.933-2.382-1.791-3.537-2.604c-0.76-0.532-1.546-0.636-2.547-0.559c-1.263,0.1-2.614-0.29-3.852-0.697
	c-1.185-0.39-2.252-1.119-3.406-1.615c-2.788-1.199-6.502,0.758-5.89,4.531c0.063,0.378,0.045,0.768-0.031,1.287
	c-0.234-1.453-1.354-1.168-2.243-1.334c-8.587-1.606-17.173-3.217-25.719-4.815c-0.035-1.637-0.492-2.208-1.888-2.412
	c-0.814-0.118-1.65-0.093-2.47-0.185c-1.231-0.139-1.621-0.668-1.246-1.86c0.27-0.858,0.723-1.656,1.095-2.479
	c-0.061-0.123-0.123-0.246-0.185-0.368c-2.739,0.704-5.514,1.296-8.205,2.147c-2.691,0.851-5.301,1.965-8.039,2.668
	c5.243-3.123,11.131-4.129,17.194-5.352c-0.407,1.229-0.785,2.191-1.042,3.188c-0.301,1.162,0.048,1.621,1.232,1.457
	c1.671-0.232,2.804,0.41,3.836,1.662c0.48,0.584,1.287,1.063,2.028,1.238c3.258,0.763,6.533,1.473,9.826,2.061
	c5.007,0.893,10.033,1.668,15.188,2.514c-0.111-3.042,1.9-4.274,4.386-5.152c0.936-0.332,1.687-0.208,2.421,0.393
	c2.261,1.85,4.76,2.813,7.733,2.162c0.445-0.098,1.021-0.082,1.404,0.127c2.339,1.269,4.222,0.171,6.11-1.049
	c1.133-0.732,2.257-1.48,3.431-2.135c1.129-0.632,2.081-1.303,2.495-2.66c0.332-1.095,1.346-1.199,2.587-0.547
	c0.439-0.451,0.79-0.955,1.266-1.271c3.328-2.219,6.028-5.043,8.44-8.22c1.061-1.396,2.448-2.604,3.876-3.636
	c0.979-0.709,2.267-1.021,3.449-1.416c1.964-0.66,4.064-1.008,5.491-2.736c0.081-0.1,0.188-0.201,0.303-0.244
	c3.447-1.212,5.063-4.215,6.884-7.019c0.805-1.241,1.669-2.411,3.463-2.898c-0.255,0.386-0.377,0.585-0.512,0.775
	c-3.944,5.568-3.419,11.066,1.515,15.804c0.775,0.746,0.775,0.746,0.349,1.625c-2.224-1.492-3.996-3.342-5.107-5.778
	c-1.139-2.501-0.896-5.039-0.198-7.625c-1.459,2.222-2.918,4.447-4.233,6.451c-0.816,0.018-1.528-0.037-2.203,0.096
	c-0.156,0.03-0.188,0.697-0.274,1.07L116.361,146.902z"/>
<path fill-rule="evenodd" clip-rule="evenodd" d="M160.584,151.985c1.784-1.4,3.417-2.755,5.141-3.983
	c0.361-0.26,1.167-0.256,1.572-0.028c1.652,0.929,3.495,1.735,4.778,3.062c2.861,2.952,5.627,6.043,8.065,9.348
	c3.01,4.079,5.649,8.432,8.547,12.814c-0.621,0.374-0.983,0.686-1.404,0.83c-2.221,0.752-4.448,1.486-6.693,2.154
	c-0.283,0.084-0.854-0.15-1.019-0.41c-5.193-8.125-11.672-15.223-17.9-22.521C161.364,152.891,161.054,152.531,160.584,151.985z"/>
<path fill-rule="evenodd" clip-rule="evenodd" d="M165.186,159.303c3.495,4.656,6.897,9.194,10.424,13.894
	c-0.789,0.542-1.516,1.141-2.329,1.582c-2.092,1.136-4.183,2.288-6.348,3.269c-1.566,0.709-3.139,0.623-4.691-0.406
	c-1.696-1.123-3.51-2.09-5.345-2.973c-1.172-0.563-1.47-1.387-1.246-2.52c0.126-0.635,0.295-1.281,0.569-1.859
	C158.285,165.921,161.719,162.678,165.186,159.303z"/>
<path fill-rule="evenodd" clip-rule="evenodd" d="M268.522,119.078c-1.317,1.29-2.61,2.563-3.911,3.83
	c-2.551,2.485-5.072,5.004-7.689,7.416c-0.531,0.49-1.514,0.914-2.164,0.777c-2.115-0.443-4.175-1.152-6.249-1.782
	c-0.18-0.054-0.345-0.244-0.468-0.409c-1.718-2.327-3.421-4.664-5.139-6.991c-0.304-0.41-0.65-0.787-1.203-1.448
	c1.672-0.485,3.083-1.061,4.55-1.291c7.302-1.151,14.636-0.801,21.963-0.275C268.289,118.908,268.361,118.984,268.522,119.078z"/>
<path fill-rule="evenodd" clip-rule="evenodd" d="M165.822,183.695c-0.484,0.195-0.972,0.383-1.45,0.587
	c-1.743,0.745-3.223,0.562-5.02-0.372c-5.352-2.781-10.875-5.232-16.355-7.763c-1.242-0.575-1.998-2.835-1.357-4.519
	c0.593-1.563,2.245-2.475,3.612-1.787c5.008,2.518,10.015,5.043,14.936,7.726c2.511,1.369,5.067,1.792,7.631,0.728
	c2.463-1.023,4.76-2.455,7.096-3.771c0.635-0.357,1.117-1.068,1.869-0.236c0.715,0.789,0.842,1.658,0.132,2.455
	c-0.601,0.675-1.295,1.311-2.06,1.787c-2.938,1.84-5.922,3.611-8.891,5.406C165.918,183.855,165.868,183.775,165.822,183.695z"/>
<path fill-rule="evenodd" clip-rule="evenodd" d="M143.308,136.714c0.45-0.449,0.901-0.896,1.351-1.344l-0.019,0.05
	c0.387-0.326,0.771-0.653,1.234-1.045c-1.124-1.12-2.346-0.617-3.504-0.523c-0.263-1.275,0.334-1.789,1.476-1.578
	c1.128,0.207,2.224,0.595,3.276,0.888c-0.438-1.019-1.419-1.522-2.625-1.628c-1.144-0.101-2.095,0.178-2.754,1.294
	c-0.742,1.256-1.556,2.571-3.435,2.078c1.312-0.247,2.245-0.875,2.494-2.375c-0.554,0.417-1.033,0.777-1.513,1.136
	c-0.07-0.058-0.141-0.116-0.214-0.173c0.224-0.42,0.448-0.84,0.706-1.324c-0.154-0.02-0.273-0.075-0.357-0.042
	c-2.15,0.873-2.702,0.506-2.307-1.83c0.381-2.254,1.012-4.465,1.489-6.501c-0.926-0.41-1.862-0.825-3.019-1.337
	c0.542-0.219,0.854-0.345,1.195-0.482c-3.224-3.644-3.309-3.863-2.021-4.836c0.005,0.62-0.242,1.473,0.077,1.94
	c0.396,0.578,1.229,0.924,1.94,1.185c0.35,0.129,1.021-0.026,1.244-0.301c0.234-0.29,0.303-1.01,0.101-1.3
	c-0.484-0.688-1.171-1.232-1.821-1.881c0.181-0.153,0.565-0.479,1.02-0.861c-0.425-0.225-0.817-0.43-1.05-0.553
	c0.466-0.654,0.921-1.294,1.377-1.938c-0.482-0.329-0.821-0.559-1.43-0.975c0.645,0.025,0.962,0.038,1.339,0.052
	c-0.44-0.578-0.854-1.119-1.266-1.659c0.077-0.106,0.154-0.213,0.231-0.32c1.259,1.052,2.511,2.127,4.413,1.064
	c-0.259,2.803-0.489,5.257-0.711,7.713c-0.043,0.476-0.064,0.954-0.081,1.431c-0.069,1.872-0.012,1.917,1.913,1.294
	c-0.183,0.897-0.344,1.692-0.557,2.736c0.431-0.421,0.685-0.667,1.021-0.997c-0.017,0.359-0.025,0.573-0.038,0.835
	c1.648-1.685,3.396-2.609,5.631-0.924c-0.193,0.387-0.336,0.7-0.502,0.998c-0.42,0.755-0.68,1.397,0.17,2.156
	c0.46,0.41,0.549,1.233,0.856,1.994c0.646-0.574,2.097,0.558,2.434-1.203c1.848,1.296,2.82-0.251,3.752-1.253
	c0.015,1.046,0.117,2.063-0.005,3.051c-0.041,0.333-0.653,0.594-1.092,0.964c0.042,0.08,0.198,0.371,0.41,0.761
	c-0.387-0.01-0.701-0.018-1.012-0.026c-0.058,0.633-0.109,1.222-0.163,1.812c-0.807-0.059-1.233,0.801-0.751,1.466
	c0.228,0.318,0.499,0.602,0.746,0.904c0.217,0.263,0.425,0.532,0.636,0.8c-0.076,0.078-0.151,0.157-0.226,0.236
	c-0.664-0.641-1.327-1.281-1.997-1.927c-0.319,0.282-0.741,0.655-1.423,1.256c0.672,1.048,1.419,2.209,2.166,3.371
	c-0.064,0.058-0.13,0.116-0.195,0.173c-0.882-1.062-1.761-2.122-2.737-3.298c-0.806,0.61-1.503,0.355-1.79-0.822
	c-1.483,1.035-2.031,3.498-4.651,2.74c0.224-0.443,0.408-0.811,0.591-1.179L143.308,136.714z"/>
<path fill-rule="evenodd" clip-rule="evenodd" d="M139.705,143.375c-2.748-0.693-3.608-1.547-3.909-3.823
	c0.488,0.529,0.879,1.059,1.373,1.459c1.095,0.888,2.616,0.901,3.91,0.113c1.917-1.168,3.954-0.333,4.488,1.851
	c0.605,2.465,0.643,4.913-0.358,7.292c-0.278,0.66-0.686,1.264-1.284,1.787c0.229-0.797,0.457-1.594,0.734-2.561
	c-0.253,0.124-0.385,0.189-0.621,0.307c-0.002-0.619-0.005-1.193-0.008-1.927c-1.629,3.033-2.634,6.253-5.177,8.552
	c0.34-0.873,0.679-1.746,1.019-2.619c-0.151-0.115-0.303-0.232-0.454-0.346c-2.04,2.883-4.728,4.817-8.023,5.914
	c0.558-0.15,1.116-0.305,2.03-0.555c-0.032,1.447,0.046,2.728-0.11,3.98c-0.254,2.021-0.129,2.177,1.857,2.705
	c0.526,0.14,1.302,0.953,1.256,1.38c-0.457,4.241,1.399,7.778,3.362,11.423c-1.94-1.225-7.08-11.526-9.335-18.6
	c-0.458,0.383-0.847,0.744-1.272,1.057c-0.645,0.473-1.417,0.816-1.948,1.387c-0.564,0.607-0.913,1.418-1.368,2.157
	c-0.304-2.096,0.738-3.747,1.987-5.33c0.596-0.759,1.402-1.281,2.021-2.079c1.117-1.439,2.685-2.549,4.141-3.697
	c2.197-1.735,3.224-4.23,4.343-6.706c-0.521,0.694-1.042,1.39-1.564,2.083c-0.068-0.046-0.139-0.092-0.208-0.137
	C137.607,146.782,138.63,145.122,139.705,143.375z"/>
<path fill-rule="evenodd" clip-rule="evenodd" d="M227.246,161.1c-0.261-1.219-0.573-2.214-0.637-3.226
	c-0.024-0.369,0.482-0.853,0.854-1.153c12.231-9.883,24.472-19.751,36.715-29.62c3.55-2.863,7.104-5.723,10.659-8.58
	c0.327-0.264,0.675-0.5,1.071-0.792c0.177,1.729-0.537,2.753-1.784,3.799c-14.314,11.999-28.564,24.074-42.831,36.128
	C230.009,158.742,228.73,159.838,227.246,161.1z"/>
<path fill-rule="evenodd" clip-rule="evenodd" d="M209.278,124.13c2.439-0.591,4.879-1.18,7.316-1.772
	c16.398-3.985,32.966-6.595,49.91-6.008c2.975,0.104,5.941,0.451,8.909,0.994c-14.057-1.39-27.956-0.177-41.819,2.234
	c0.777,0.1,1.554,0.199,2.329,0.3c0.013,0.123,0.024,0.245,0.037,0.369c-7.009,4.652-14.599,7.498-23.593,7.117
	c2.835-1.849,5.439-3.548,8.318-5.428c-2.847,0.689-5.392,1.306-7.937,1.921c0.006,0.057,0.011,0.113,0.019,0.169
	c0.651-0.065,1.3-0.129,1.952-0.194c0.08,0.14,0.162,0.28,0.24,0.419c-1.198,0.922-2.387,1.858-3.606,2.75
	c-0.126,0.09-0.477-0.029-0.665-0.144c-0.739-0.447-1.456-0.93-2.254-1.448c0.208-0.154,0.422-0.311,0.554-0.409
	c-0.387,0.06-0.859,0.134-1.333,0.205c-0.039-0.115-0.075-0.229-0.113-0.346c0.597-0.24,1.193-0.481,1.788-0.722
	C209.328,124.139,209.278,124.13,209.278,124.13z"/>
<path fill-rule="evenodd" clip-rule="evenodd" d="M163.601,157.111c-4.322,4.813-8.802,9.402-10.953,15.609
	c-2.36-1.198-4.734-2.404-7.106-3.611c1.025-4.221,3.671-7.071,7.456-9.014c2.198-1.13,4.339-2.377,6.52-3.546
	C161.576,155.444,161.585,155.459,163.601,157.111z"/>
<path fill-rule="evenodd" clip-rule="evenodd" d="M172.516,147.672c3.928-3.265,7.747-6.671,11.817-9.743
	c2.615-1.97,5.576-3.49,8.441-5.106c0.495-0.278,1.325-0.17,1.933,0.004c1.367,0.389,2.689,0.93,4.003,1.67
	c-7.8,6.412-16.778,10.126-25.873,13.619C172.73,147.967,172.624,147.82,172.516,147.672z"/>
<path fill-rule="evenodd" clip-rule="evenodd" d="M206.688,148.185c0.084,0.143,0.188,0.269,0.239,0.413
	c1.63,4.58,3.271,9.156,4.85,13.754c0.124,0.359-0.062,1.156-0.311,1.26c-2.469,1.045-4.941,2.109-7.493,2.908
	c-1.477,0.467-1.774,0.064-1.657-1.448c0.425-5.483,1.374-10.849,3.675-15.899c0.125-0.275,0.273-0.543,0.423-0.805
	C206.451,148.305,206.543,148.277,206.688,148.185z"/>
<path fill-rule="evenodd" clip-rule="evenodd" d="M188.43,169.928c8.153-1.158,16.147-2.063,23.667-5.758
	c0.199,1.326,0.385,2.574,0.593,3.963c-3.05,0.664-6.001,1.338-8.965,1.943c-3.742,0.766-7.503,1.441-11.238,2.234
	c-1.432,0.305-2.542,0.154-3.241-1.279C189.08,170.692,188.794,170.412,188.43,169.928z"/>
<path fill-rule="evenodd" clip-rule="evenodd" d="M228.544,126.059c3.329-1.479,6.651-2.968,9.992-4.419
	c0.25-0.109,0.747-0.08,0.901,0.091c1.812,2.021,3.581,4.081,5.292,6.229C239.419,126.367,234.02,126.165,228.544,126.059z"/>
<path fill-rule="evenodd" clip-rule="evenodd" d="M28.904,171.713c0.243,0.061,0.505,0.045,0.604,0.164
	c1.428,1.721,3.405,1.924,5.436,2.037c0.862,0.047,1.734,0.108,2.575,0.289c7.015,1.502,14.022,3.031,20.747,4.492
	c0.868-0.545,1.554-0.977,2.239-1.408c0.109,0.132,0.218,0.265,0.327,0.398c-0.181,0.317-0.294,0.707-0.55,0.941
	c-1.657,1.512-1.548,3.598-1.857,5.547c-0.021,0.129-0.055,0.275-0.012,0.388c0.288,0.79,3.285,1.962,4.091,1.62
	c0.6-0.255,1.203-0.686,1.81-0.693c0.846-0.012,1.844,0.076,2.509,0.521c0.922,0.62,1.692,1.179,2.915,1.13
	c0.664-0.024,1.429,0.553,2.022,1.02c1.952,1.535,2.212,1.481,3.075-0.907c0.072-0.204,0.147-0.405,0.498-0.513
	c-0.343,0.994-0.64,2.013-1.061,2.973c-0.097,0.22-0.681,0.414-0.947,0.33c-0.567-0.181-1.061-0.576-1.606-0.84
	c-1.104-0.535-2.236-1.02-3.333-1.568c-0.657-0.327-1.302-0.699-1.898-1.123c-0.707-0.502-1.394-0.662-2.178-0.207
	c-0.299,0.172-0.649,0.26-0.948,0.434c-2.021,1.177-3.403-0.064-4.684-1.326c-1.037-1.024-1.141-2.342-0.689-3.723
	c0.255-0.776,0.411-1.585,0.631-2.461c-4.262-0.871-8.416-1.717-12.568-2.566c-2.643-0.541-5.271-1.15-7.93-1.597
	c-1.244-0.208-2.555-0.229-3.813-0.106C32.06,175.178,29.544,173.79,28.904,171.713z"/>
<path fill-rule="evenodd" clip-rule="evenodd" d="M182.456,93.305c1.034,4.081-5.09,12.136-8.828,11.42
	c0.29-1.163,1.284-1.41,2.17-1.764c2.952-1.176,5.277-4.488,5.442-7.77c-1.422,0.238-8.203,5.849-8.79,7.273
	c-1.278-0.71-1.534-1.229-0.874-2.429c0.45-0.818,1.08-1.581,1.773-2.212C175.399,95.958,180.285,93.589,182.456,93.305z"/>
<path fill-rule="evenodd" clip-rule="evenodd" d="M200.452,107.472c-6.995,4.823-13.938,9.61-20.86,14.386
	c-0.092-1.048,0.256-1.875,1.26-2.539c5.142-3.398,10.21-6.912,15.39-10.249C197.487,108.269,199.063,107.983,200.452,107.472z"/>
<path fill-rule="evenodd" clip-rule="evenodd" d="M181.286,137.354c0.139-0.844,0.078-1.504,0.353-1.964
	c1.299-2.182,2.659-4.327,4.074-6.434c0.235-0.351,0.871-0.629,1.286-0.588c0.24,0.025,0.563,0.749,0.582,1.171
	c0.058,1.292,0.006,2.592-0.053,3.888c-0.012,0.259-0.184,0.625-0.393,0.744C185.3,135.204,183.437,136.192,181.286,137.354z"/>
<path fill-rule="evenodd" clip-rule="evenodd" d="M104.269,181.545c-0.245,0.133-0.388,0.223-0.54,0.289
	c-0.8,0.353-1.547,0.764-1.167,1.828c0.368,1.027,1.199,1.141,2.138,0.932c1.704-0.379,2.008-0.853,1.547-2.566
	c-0.212-0.786-0.529-1.543-0.808-2.344c1.761,0.328,2.906,3.371,1.819,4.674c-1.228,1.467-4.699,1.706-6.101,0.418
	c-1.069-0.98-1.258-2.502-0.417-3.357C101.655,180.486,103.235,180.494,104.269,181.545z"/>
<path fill-rule="evenodd" clip-rule="evenodd" d="M213.106,128.607c2.708-0.063,5.419-0.126,8.128-0.19
	c0.044,0.106,0.088,0.214,0.132,0.321c-1.807,1.357-3.613,2.714-5.511,4.14c-0.992-1.337-1.935-2.606-2.878-3.875
	C213.021,128.871,213.063,128.738,213.106,128.607z"/>
<path fill-rule="evenodd" clip-rule="evenodd" d="M200.266,136.556c1.178,1.431,2.301,2.795,3.61,4.386
	c-2.55,0.074-4.939,0.142-7.712,0.22C197.661,139.481,198.934,138.052,200.266,136.556z"/>
<path fill-rule="evenodd" clip-rule="evenodd" d="M131.799,155.129c-0.813,0.326-1.327,0.535-2.231,0.899
	c-0.233-4.386-0.459-8.601-0.683-12.818c0.161-0.021,0.323-0.041,0.485-0.063c0.514,2.167,1.033,4.332,1.532,6.502
	c0.043,0.193,0.017,0.49-0.105,0.618c-0.827,0.864-0.329,1.668,0.044,2.501C131.172,153.512,131.453,154.274,131.799,155.129z"/>
<path fill-rule="evenodd" clip-rule="evenodd" d="M116.332,146.943c0.23-0.162,0.459-0.325,0.819-0.578
	c0.156,4.231,0.622,8.222,3.985,11.15c-0.686,0.768-1.376,0.789-1.882,0.048c-0.776-1.132-1.682-2.277-2.063-3.558
	c-0.575-1.936-0.77-3.986-1.073-6c-0.052-0.344,0.152-0.731,0.24-1.101C116.361,146.902,116.332,146.943,116.332,146.943z"/>
<path fill-rule="evenodd" clip-rule="evenodd" d="M206.174,117.827c-0.652-0.269-1.305-0.538-1.957-0.806
	c-1.138-0.375-2.272-0.75-3.41-1.125c0.008-0.074,0.017-0.146,0.023-0.219c1.29,0.148,2.581,0.294,3.872,0.442l-0.052-0.015
	c1.974,0.779,4.036,1.39,5.896,2.384c1.76,0.942,3.304,2.289,4.942,3.457c-0.105,0.185-0.206,0.372-0.312,0.556
	c-0.345-0.159-0.709-0.283-1.029-0.48c-1.803-1.116-3.563-2.306-5.406-3.347C207.974,118.237,207.035,118.099,206.174,117.827z"/>
<path fill-rule="evenodd" clip-rule="evenodd" d="M149.394,209.876c-0.643-0.092-1.404,0.001-1.903-0.315
	c-1.112-0.709-2.347-1.451-3.068-2.498c-1.116-1.618-2.473-2.64-4.351-3.01c-3.457-0.68-4.442-3.604-5.881-6.126
	c0.13-0.106,0.259-0.212,0.386-0.315c0.311,0.486,0.622,0.971,0.93,1.46c0.623,0.983,1.165,2.023,1.881,2.929
	c0.77,0.975,1.754,1.559,3.141,1.49c1.456-0.07,2.878,0.518,3.48,1.879c1.08,2.434,2.938,3.639,5.494,4.04
	C149.466,209.566,149.43,209.721,149.394,209.876z"/>
<path fill-rule="evenodd" clip-rule="evenodd" d="M83.266,179.976c-0.381,0.21-0.894,0.585-0.965,0.513
	c-0.341-0.336-0.856-0.873-0.77-1.195c0.286-1.07,0.804-2.08,1.529-3.105c-0.1,3.615,1.993,5.741,4.609,7.579
	C86.001,184.162,84.437,182.767,83.266,179.976z"/>
<path fill-rule="evenodd" clip-rule="evenodd" d="M197.256,107.784c-0.498,0.411-0.712,0.732-0.969,0.772
	c-2.718,0.418-5.442,0.791-7.742,1.117c1.298-0.436,3.056-1.025,4.813-1.616c-2.861-1.057-5.231,0.513-7.744,1.308
	c2.922-1.714,5.824-3.445,9.419-1.702C195.524,107.901,196.208,107.743,197.256,107.784z"/>
<path fill-rule="evenodd" clip-rule="evenodd" d="M15.101,175.93c-2.197-3.484-2.201-10.418,0.014-11.346
	c-0.217,1.883-0.606,3.786-0.606,5.688C14.509,172.191,14.895,174.11,15.101,175.93z"/>
<path fill-rule="evenodd" clip-rule="evenodd" d="M94.492,185.248c0.008-3.246,4.313-6.447,7.763-5.871
	C99.024,180.5,96.625,182.488,94.492,185.248z"/>
<path fill-rule="evenodd" clip-rule="evenodd" d="M110.704,188.161c0.792-2.857,4.522-5.467,6.898-4.91
	C115.361,184.845,113.024,186.51,110.704,188.161z"/>
<path fill-rule="evenodd" clip-rule="evenodd" d="M165.882,194.473c0.143-1.991,3.545-7.003,6.766-9.848
	C170.29,188.057,168.085,191.266,165.882,194.473z"/>
<path fill-rule="evenodd" clip-rule="evenodd" d="M16.226,176.305c3.332-2.425,7.264-3.668,11.164-4.977
	c0.063,0.134,0.123,0.268,0.185,0.401C23.777,173.26,19.981,174.789,16.226,176.305z"/>
<path fill-rule="evenodd" clip-rule="evenodd" d="M145.357,140.738c-1.428-0.357-2.462-0.617-3.798-0.952
	c0.317-0.479,0.616-1.278,0.887-1.269c0.892,0.03,1.825,0.244,2.627,0.627C145.342,139.275,145.263,140.128,145.357,140.738z"/>
<path fill-rule="evenodd" clip-rule="evenodd" d="M126.73,165.865c-3.344,0.723-5.62,3.107-8.143,5.297
	C118.895,169.088,124.189,165.68,126.73,165.865z"/>
<path fill-rule="evenodd" clip-rule="evenodd" d="M204.702,116.119c0.158-3.292-1.366-5.975-3.215-8.541
	c0.116-0.086,0.231-0.173,0.348-0.261c0.603,0.708,1.487,1.324,1.754,2.142c0.647,1.986,1.019,4.065,1.465,6.114
	c0.031,0.142-0.257,0.353-0.4,0.531C204.65,116.104,204.702,116.119,204.702,116.119z"/>
<path fill-rule="evenodd" clip-rule="evenodd" d="M128.215,203.662c0.483-0.061,0.966-0.152,1.45-0.172
	c0.518-0.023,1.039,0.025,1.558,0.035c2.961,0.063,3.562-0.545,3.386-3.429c0.988,1.042,1.068,1.968-0.024,2.806
	c-0.714,0.544-1.668,0.925-2.561,1.045c-1.219,0.166-2.483,0.014-3.728-0.005C128.271,203.848,128.241,203.756,128.215,203.662z"/>
<path fill-rule="evenodd" clip-rule="evenodd" d="M143.333,136.658c-0.565,0.277-0.992,0.333-0.942-0.526
	c0.034-0.595,0.019-1.194,0.024-1.791c0.109-0.003,0.219-0.009,0.328-0.014c0.188,0.797,0.376,1.593,0.563,2.387
	C143.308,136.714,143.333,136.658,143.333,136.658z"/>
<path d="M161.828,104.506c-4.565-1.934-20.798,4.471-17.095-4.235C145.987,97.339,158.714,96.781,161.828,104.506z"/>
</svg>
