<?xml version="1.0" encoding="utf-8"?>
<!-- Generator: Adobe Illustrator 16.0.3, SVG Export Plug-In . SVG Version: 6.00 Build 0)  -->
<!DOCTYPE svg PUBLIC "-//W3C//DTD SVG 1.1//EN" "http://www.w3.org/Graphics/SVG/1.1/DTD/svg11.dtd">
<svg version="1.1" id="Layer_1" xmlns="http://www.w3.org/2000/svg" xmlns:xlink="http://www.w3.org/1999/xlink" x="0px" y="0px"
	 width="288px" height="288px" viewBox="0 0 288 288" enable-background="new 0 0 288 288" xml:space="preserve">
<g>
	<circle fill="#262312" cx="144" cy="144" r="144"/>
</g>
<g>
	<circle fill="#595647" cx="144" cy="144" r="132.236"/>
</g>
<g>
	<path fill="#A68F63" d="M144,233.66c-49.439,0-89.66-40.222-89.66-89.66c0-35.002,20.58-67.023,52.429-81.579
		c0.407-0.194,0.864-0.4,1.321-0.585c3.688-1.596,7.049-2.415,9.945-2.415c4.522,0,10.348,1.995,12.468,11.476
		c0.047,0.162,0.069,0.296,0.082,0.372L144,134.38l13.434-63.207c0.013-0.077,0.034-0.17,0.061-0.264
		c2.118-9.493,7.947-11.488,12.471-11.488c2.896,0,6.257,0.818,9.989,2.433c0.413,0.167,0.87,0.373,1.306,0.58
		c31.821,14.542,52.4,46.564,52.4,81.566C233.66,193.438,193.438,233.66,144,233.66z"/>
	<path fill="#262312" d="M169.965,61.421c3.023,0,6.263,1,9.195,2.269c0.42,0.17,0.84,0.36,1.24,0.55
		c30.239,13.82,51.26,44.34,51.26,79.76c0,48.41-39.25,87.66-87.66,87.66S56.34,192.41,56.34,144c0-35.42,21.02-65.94,51.26-79.76
		c0.4-0.19,0.82-0.38,1.24-0.55c2.932-1.268,6.173-2.269,9.195-2.269c4.698,0,8.868,2.417,10.535,9.999
		c0.02,0.05,0.03,0.11,0.04,0.17L144,144l15.39-72.41c0.011-0.06,0.021-0.12,0.04-0.17
		C161.097,63.838,165.269,61.422,169.965,61.421 M169.967,57.421h-0.002c-4.296,0-11.861,1.693-14.409,12.991
		c-0.046,0.171-0.074,0.313-0.092,0.408L144,124.759l-11.461-53.926c-0.023-0.127-0.054-0.272-0.098-0.433
		c-2.55-11.288-10.112-12.979-14.406-12.979c-3.159,0-6.772,0.868-10.74,2.579c-0.43,0.175-0.884,0.376-1.384,0.614
		C73.368,75.5,52.34,108.229,52.34,144c0,50.542,41.119,91.66,91.66,91.66c50.542,0,91.66-41.118,91.66-91.66
		c0-35.771-21.027-68.499-53.569-83.385c-0.503-0.239-0.957-0.44-1.386-0.615C176.737,58.289,173.125,57.421,169.967,57.421
		L169.967,57.421z"/>
</g>
<g>
	<g>
		<path fill="#262312" d="M143.876,143.783c0,0,0.652-0.707,1.868-1.814c0.606-0.557,1.358-1.205,2.232-1.928
			c0.879-0.715,1.877-1.51,2.988-2.338c2.226-1.652,4.879-3.478,7.865-5.187c3.002-1.678,6.397-3.131,9.655-4.827
			c3.271-1.671,6.528-3.365,9.618-4.891c3.076-1.55,5.971-2.956,8.448-4.166c4.947-2.436,8.28-3.999,8.28-3.999l0.248,0.434
			c0,0-3.036,2.081-7.644,5.11c-2.299,1.523-4.979,3.306-7.874,5.171c-2.881,1.89-5.992,3.84-9.092,5.812
			c-3.112,1.948-6.086,4.139-9.055,5.876c-2.986,1.708-5.905,3.07-8.457,4.15c-1.277,0.538-2.469,0.995-3.531,1.391
			c-1.066,0.387-2.006,0.708-2.793,0.947c-1.571,0.487-2.511,0.691-2.511,0.691L143.876,143.783z"/>
	</g>
	<g>
		<path fill="#262312" d="M144.098,143.77c0,0,1.086,0.148,2.929,0.544c0.924,0.194,2.031,0.461,3.293,0.788
			c1.257,0.339,2.676,0.72,4.195,1.2c1.523,0.473,3.17,0.993,4.882,1.614c1.719,0.603,3.505,1.302,5.33,2.077
			c3.637,1.585,7.363,3.633,11.199,5.425c3.825,1.816,7.66,3.609,11.228,5.356c3.578,1.721,6.899,3.37,9.748,4.779
			c5.706,2.801,9.481,4.733,9.481,4.732l-0.195,0.461c0-0.001-4.01-1.383-9.983-3.555c-2.99-1.077-6.481-2.327-10.202-3.715
			c-3.731-1.36-7.683-2.882-11.644-4.38c-3.949-1.523-8.009-2.789-11.672-4.313c-1.824-0.777-3.566-1.581-5.192-2.402
			c-1.634-0.804-3.15-1.63-4.546-2.4c-1.4-0.762-2.658-1.521-3.773-2.191c-1.11-0.684-2.07-1.297-2.851-1.828
			c-1.563-1.054-2.423-1.734-2.423-1.734L144.098,143.77z"/>
	</g>
	<g>
		<path fill="#262312" d="M144.178,143.824c0,0,0.465,0.055,1.168,0.262c0.355,0.099,0.763,0.243,1.214,0.424
			c0.454,0.179,0.94,0.406,1.442,0.682c1,0.556,2.106,1.264,3.063,2.249c0.94,1.001,1.668,2.341,2.595,3.485
			c0.906,1.163,1.83,2.309,2.646,3.433c0.834,1.106,1.588,2.163,2.236,3.065c1.29,1.813,2.108,3.064,2.108,3.064l-0.355,0.352
			c0,0-1.241-0.833-3.04-2.144c-0.895-0.659-1.942-1.426-3.039-2.272c-1.114-0.829-2.249-1.767-3.402-2.687
			c-1.133-0.938-2.464-1.682-3.454-2.635c-0.974-0.967-1.67-2.081-2.213-3.089c-0.271-0.504-0.492-0.993-0.666-1.449
			c-0.176-0.453-0.315-0.862-0.41-1.219c-0.199-0.705-0.248-1.171-0.248-1.171L144.178,143.824z"/>
	</g>
	<g>
		<path fill="#262312" d="M144.247,144.04c0,0,0.112,1.115,0.161,3.042c0.029,0.965,0.03,2.13,0.01,3.464
			c-0.033,1.331-0.069,2.833-0.179,4.461c-0.101,1.629-0.219,3.392-0.419,5.244c-0.181,1.855-0.44,3.802-0.764,5.806
			c-0.685,4.001-1.798,8.208-2.637,12.459c-0.866,4.246-1.706,8.497-2.564,12.47c-0.83,3.979-1.652,7.684-2.351,10.86
			c-1.379,6.356-2.369,10.583-2.369,10.583l-0.493-0.08c0,0,0.4-4.322,1.104-10.788c0.343-3.235,0.736-7.01,1.209-11.046
			c0.444-4.041,0.993-8.339,1.516-12.642c0.551-4.297,0.826-8.64,1.444-12.652c0.327-2.003,0.698-3.931,1.113-5.748
			c0.396-1.821,0.842-3.531,1.263-5.107c0.411-1.579,0.853-3.015,1.242-4.288c0.403-1.271,0.773-2.377,1.106-3.282
			c0.657-1.813,1.116-2.835,1.116-2.835L144.247,144.04z"/>
	</g>
	<g>
		<path fill="#262312" d="M144.19,144.162c0,0-0.051,0.511-0.26,1.304c-0.1,0.4-0.247,0.864-0.433,1.383
			c-0.184,0.52-0.418,1.083-0.705,1.671c-0.577,1.174-1.314,2.488-2.351,3.688c-1.053,1.185-2.471,2.197-3.677,3.391
			c-1.227,1.176-2.434,2.368-3.621,3.439c-1.167,1.088-2.282,2.081-3.235,2.935c-1.915,1.7-3.236,2.796-3.236,2.796l-0.381-0.324
			c0,0,0.868-1.48,2.238-3.644c0.689-1.078,1.49-2.339,2.375-3.666c0.866-1.343,1.849-2.727,2.812-4.126
			c0.983-1.383,1.755-2.945,2.755-4.175c1.017-1.216,2.194-2.155,3.26-2.914c0.535-0.377,1.053-0.699,1.537-0.964
			c0.481-0.267,0.916-0.487,1.294-0.65c0.749-0.334,1.245-0.467,1.245-0.467L144.19,144.162z"/>
	</g>
	<g>
		<path fill="#262312" d="M143.974,144.249c0,0-1.143,0.171-3.127,0.322c-0.993,0.08-2.195,0.143-3.571,0.194
			c-1.375,0.037-2.927,0.081-4.611,0.057c-1.686-0.014-3.512-0.038-5.434-0.14c-1.925-0.083-3.948-0.238-6.034-0.456
			c-4.169-0.471-8.575-1.361-13.011-1.973c-4.433-0.64-8.868-1.253-13.019-1.9c-4.153-0.618-8.025-1.243-11.344-1.772
			c-6.641-1.041-11.06-1.805-11.06-1.805l0.052-0.497c0,0,4.482,0.17,11.194,0.531c3.357,0.17,7.274,0.363,11.465,0.621
			c4.195,0.229,8.661,0.549,13.129,0.844c4.466,0.322,8.961,0.367,13.137,0.771c2.086,0.22,4.097,0.488,5.997,0.807
			c1.902,0.299,3.693,0.654,5.345,0.991c1.653,0.327,3.162,0.692,4.499,1.014c1.336,0.335,2.499,0.646,3.453,0.931
			c1.91,0.56,2.992,0.964,2.992,0.964L143.974,144.249z"/>
	</g>
	<g>
		<path fill="#262312" d="M143.866,144.211c0,0-0.515,0.019-1.332-0.081c-0.412-0.045-0.894-0.128-1.434-0.242
			c-0.542-0.111-1.135-0.267-1.76-0.472c-1.248-0.412-2.657-0.965-3.994-1.83c-1.325-0.883-2.531-2.152-3.886-3.186
			c-1.341-1.057-2.695-2.093-3.926-3.124c-1.245-1.01-2.389-1.981-3.371-2.811c-1.958-1.668-3.233-2.83-3.233-2.83l0.269-0.422
			c0,0,1.593,0.66,3.935,1.725c1.168,0.537,2.533,1.16,3.976,1.858c1.457,0.677,2.969,1.463,4.496,2.228
			c1.512,0.788,3.173,1.34,4.535,2.166c1.351,0.843,2.45,1.884,3.353,2.838c0.451,0.479,0.843,0.949,1.174,1.393
			c0.333,0.441,0.613,0.842,0.828,1.196c0.438,0.697,0.639,1.172,0.639,1.172L143.866,144.211z"/>
	</g>
	<g>
		<path fill="#262312" d="M143.978,143.751c0,0,0.632-0.346,1.751-0.804c0.559-0.233,1.241-0.483,2.025-0.748
			c0.784-0.267,1.672-0.533,2.644-0.783c1.945-0.495,4.221-0.987,6.688-1.193c2.469-0.184,5.138,0.005,7.78-0.083
			c2.646-0.061,5.29-0.147,7.774-0.157c2.482-0.038,4.804-0.026,6.792-0.022c3.977-0.01,6.633,0.054,6.633,0.054l0.045,0.498
			c0,0-2.604,0.531-6.521,1.222c-1.957,0.355-4.239,0.775-6.689,1.175c-2.447,0.428-5.064,0.809-7.68,1.215
			c-2.618,0.379-5.211,1.035-7.674,1.288c-2.466,0.231-4.793,0.148-6.794,0.004c-1.001-0.074-1.922-0.18-2.74-0.305
			c-0.819-0.122-1.534-0.248-2.126-0.379c-1.183-0.254-1.866-0.483-1.866-0.483L143.978,143.751z"/>
	</g>
	<g>
		<path fill="#262312" d="M143.79,143.864c0,0,0.086-0.666,0.361-1.751c0.134-0.545,0.325-1.188,0.563-1.914
			c0.235-0.728,0.531-1.529,0.887-2.381c0.717-1.702,1.625-3.641,2.869-5.544c1.262-1.891,2.934-3.698,4.371-5.656
			c1.461-1.943,2.9-3.9,4.311-5.697c1.385-1.812,2.718-3.477,3.856-4.906c2.26-2.871,3.826-4.746,3.826-4.746l0.42,0.271
			c0,0-1.064,2.199-2.75,5.44c-0.835,1.626-1.804,3.526-2.885,5.534c-1.057,2.024-2.248,4.141-3.417,6.272
			c-1.193,2.116-2.152,4.384-3.356,6.313c-1.222,1.917-2.615,3.543-3.872,4.896c-0.63,0.676-1.238,1.275-1.805,1.789
			c-0.563,0.516-1.071,0.955-1.513,1.301c-0.875,0.698-1.447,1.05-1.447,1.05L143.79,143.864z"/>
	</g>
</g>
</svg>
